M48
; DRILL file {KiCad 7.0.2} date Sat Jan 20 07:38:43 2024
; FORMAT={-:-/ absolute / metric / decimal}
; #@! TF.CreationDate,2024-01-20T07:38:43+00:00
; #@! TF.GenerationSoftware,Kicad,Pcbnew,7.0.2
; #@! TF.FileFunction,Plated,1,2,PTH
FMAT,2
METRIC
; #@! TA.AperFunction,Plated,PTH,ViaDrill
T1C0.400
; #@! TA.AperFunction,Plated,PTH,ComponentDrill
T2C1.000
; #@! TA.AperFunction,Plated,PTH,ComponentDrill
T3C1.020
; #@! TA.AperFunction,Plated,PTH,ComponentDrill
T4C1.200
%
G90
G05
T1
X97.028Y-100.711
X98.044Y-101.727
X105.299Y-91.821
X105.349Y-99.949
X106.172Y-100.965
T2
X77.47Y-90.805
X77.47Y-100.965
X80.01Y-90.805
X80.01Y-100.965
X82.55Y-90.805
X82.55Y-100.965
X85.09Y-90.805
X85.09Y-100.965
X87.63Y-90.805
X87.63Y-100.965
X90.17Y-90.805
X90.17Y-100.965
X99.9Y-93.385
X99.9Y-95.885
X99.9Y-98.385
X101.6Y-93.885
X101.6Y-95.885
X101.6Y-97.885
X103.6Y-93.885
X103.6Y-95.885
X103.6Y-97.885
T3
X72.39Y-88.265
X72.39Y-103.505
X74.93Y-88.265
X74.93Y-103.505
X77.47Y-88.265
X77.47Y-103.505
X80.01Y-88.265
X80.01Y-103.505
X82.55Y-88.265
X82.55Y-103.505
X85.09Y-88.265
X85.09Y-103.505
X87.63Y-88.265
X87.63Y-103.505
X90.17Y-88.265
X90.17Y-103.505
X92.71Y-88.265
X92.71Y-90.805
X92.71Y-93.345
X92.71Y-95.885
X92.71Y-98.425
X92.71Y-100.965
X92.71Y-103.505
T2
G00X97.36Y-93.365
M15
G01X97.9Y-93.365
M16
G05
G00X97.36Y-95.885
M15
G01X97.9Y-95.885
M16
G05
G00X97.36Y-98.405
M15
G01X97.9Y-98.405
M16
G05
G00X103.6Y-91.385
M15
G01X102.8Y-91.385
M16
G05
G00X103.6Y-100.385
M15
G01X102.8Y-100.385
M16
G05
T4
G00X103.4Y-90.01
M15
G01X102.4Y-90.01
M16
G05
G00X103.4Y-101.81
M15
G01X102.4Y-101.81
M16
G05
T0
M30
