G04 #@! TF.GenerationSoftware,KiCad,Pcbnew,7.0.2*
G04 #@! TF.CreationDate,2024-01-20T07:38:39+00:00*
G04 #@! TF.ProjectId,game-boy-zero-link-board,67616d65-2d62-46f7-992d-7a65726f2d6c,rev?*
G04 #@! TF.SameCoordinates,Original*
G04 #@! TF.FileFunction,Copper,L2,Bot*
G04 #@! TF.FilePolarity,Positive*
%FSLAX46Y46*%
G04 Gerber Fmt 4.6, Leading zero omitted, Abs format (unit mm)*
G04 Created by KiCad (PCBNEW 7.0.2) date 2024-01-20 07:38:39*
%MOMM*%
%LPD*%
G01*
G04 APERTURE LIST*
G04 #@! TA.AperFunction,ConnectorPad*
%ADD10R,8.000000X2.000000*%
G04 #@! TD*
G04 #@! TA.AperFunction,ConnectorPad*
%ADD11R,5.000000X1.000000*%
G04 #@! TD*
G04 #@! TA.AperFunction,ComponentPad*
%ADD12C,1.700000*%
G04 #@! TD*
G04 #@! TA.AperFunction,ComponentPad*
%ADD13O,1.700000X1.700000*%
G04 #@! TD*
G04 #@! TA.AperFunction,ComponentPad*
%ADD14R,1.700000X1.700000*%
G04 #@! TD*
G04 #@! TA.AperFunction,ComponentPad*
%ADD15R,1.940000X1.400000*%
G04 #@! TD*
G04 #@! TA.AperFunction,ComponentPad*
%ADD16R,1.400000X1.400000*%
G04 #@! TD*
G04 #@! TA.AperFunction,ComponentPad*
%ADD17C,1.400000*%
G04 #@! TD*
G04 #@! TA.AperFunction,ComponentPad*
%ADD18O,1.940000X1.400000*%
G04 #@! TD*
G04 #@! TA.AperFunction,ComponentPad*
%ADD19O,3.000000X2.000000*%
G04 #@! TD*
G04 #@! TA.AperFunction,ComponentPad*
%ADD20O,2.200000X1.400000*%
G04 #@! TD*
G04 #@! TA.AperFunction,ViaPad*
%ADD21C,0.800000*%
G04 #@! TD*
G04 #@! TA.AperFunction,Conductor*
%ADD22C,0.200000*%
G04 #@! TD*
G04 #@! TA.AperFunction,Conductor*
%ADD23C,0.250000*%
G04 #@! TD*
G04 APERTURE END LIST*
D10*
X111260000Y-105385000D03*
X111260000Y-102785000D03*
X111260000Y-100285000D03*
D11*
X109710000Y-89785000D03*
X109710000Y-87785000D03*
X109710000Y-85785000D03*
D12*
X72390000Y-88265000D03*
D13*
X74930000Y-88265000D03*
D12*
X77470000Y-88265000D03*
D13*
X80010000Y-88265000D03*
X82550000Y-88265000D03*
X85090000Y-88265000D03*
X87630000Y-88265000D03*
D12*
X90170000Y-88265000D03*
D13*
X92710000Y-88265000D03*
X92710000Y-90805000D03*
X92710000Y-93345000D03*
X92710000Y-95885000D03*
D12*
X92710000Y-98425000D03*
D13*
X92710000Y-100965000D03*
X92710000Y-103505000D03*
X90170000Y-103505000D03*
X87630000Y-103505000D03*
D12*
X85090000Y-103505000D03*
D13*
X82550000Y-103505000D03*
X80010000Y-103505000D03*
X77470000Y-103505000D03*
D14*
X74930000Y-103505000D03*
D12*
X72390000Y-103505000D03*
D14*
X77470000Y-90805000D03*
D12*
X80010000Y-90805000D03*
X82550000Y-90805000D03*
X85090000Y-90805000D03*
X87630000Y-90805000D03*
X90170000Y-90805000D03*
X77470000Y-100965000D03*
X80010000Y-100965000D03*
X82550000Y-100965000D03*
X85090000Y-100965000D03*
X87630000Y-100965000D03*
X90170000Y-100965000D03*
D15*
X97630000Y-98405000D03*
D16*
X101600000Y-97885000D03*
D17*
X99900000Y-98385000D03*
X103600000Y-97885000D03*
D18*
X97630000Y-95885000D03*
D17*
X101600000Y-95885000D03*
X99900000Y-95885000D03*
X103600000Y-95885000D03*
D18*
X97630000Y-93365000D03*
D17*
X101600000Y-93885000D03*
X99900000Y-93385000D03*
X103600000Y-93885000D03*
D19*
X102900000Y-90010000D03*
X102900000Y-101810000D03*
D20*
X103200000Y-91385000D03*
X103200000Y-100385000D03*
D21*
X105349500Y-99949000D03*
X105299500Y-91821000D03*
X98044000Y-101727000D03*
X97028000Y-100711000D03*
X106172000Y-100965000D03*
D22*
X82550000Y-100965000D02*
X83700000Y-99815000D01*
X105816471Y-89775000D02*
X108915000Y-89775000D01*
X105283000Y-91804500D02*
X105283000Y-90308471D01*
X104140000Y-99187000D02*
X102902000Y-99187000D01*
X103560837Y-105375000D02*
X97630000Y-99444163D01*
X105283000Y-90308471D02*
X105816471Y-89775000D01*
X102902000Y-99187000D02*
X101600000Y-97885000D01*
X105349500Y-99949000D02*
X104902000Y-99949000D01*
X105299500Y-91821000D02*
X105283000Y-91804500D01*
X96220000Y-99815000D02*
X97630000Y-98405000D01*
X110465000Y-105375000D02*
X103560837Y-105375000D01*
X97630000Y-99444163D02*
X97630000Y-98405000D01*
X83700000Y-99815000D02*
X96220000Y-99815000D01*
X104902000Y-99949000D02*
X104140000Y-99187000D01*
X98900000Y-100148478D02*
X102002522Y-103251000D01*
X106966000Y-102775000D02*
X110465000Y-102775000D01*
X98900000Y-97155000D02*
X98900000Y-100148478D01*
X98900000Y-91600000D02*
X102725000Y-87775000D01*
X98630000Y-94885000D02*
X100600000Y-94885000D01*
X98630000Y-94885000D02*
X98900000Y-94615000D01*
X97630000Y-95885000D02*
X98630000Y-94885000D01*
X100600000Y-94885000D02*
X101600000Y-95885000D01*
X106490000Y-103251000D02*
X106966000Y-102775000D01*
X97630000Y-95885000D02*
X98900000Y-97155000D01*
X80010000Y-100965000D02*
X83700000Y-97275000D01*
X96240000Y-97275000D02*
X97630000Y-95885000D01*
X102002522Y-103251000D02*
X106490000Y-103251000D01*
X102725000Y-87775000D02*
X108915000Y-87775000D01*
X98900000Y-94615000D02*
X98900000Y-91600000D01*
X83700000Y-97275000D02*
X96240000Y-97275000D01*
X103600000Y-95885000D02*
X102600000Y-96885000D01*
X100900000Y-96885000D02*
X99900000Y-95885000D01*
X102600000Y-96885000D02*
X100900000Y-96885000D01*
X102600000Y-92885000D02*
X104696000Y-92885000D01*
X108915000Y-85775000D02*
X104159314Y-85775000D01*
X77470000Y-100965000D02*
X83700000Y-94735000D01*
X97630000Y-92304314D02*
X97630000Y-93365000D01*
X83700000Y-94735000D02*
X96260000Y-94735000D01*
X105283000Y-98546527D02*
X107011473Y-100275000D01*
X104159314Y-85775000D02*
X97630000Y-92304314D01*
X107011473Y-100275000D02*
X110465000Y-100275000D01*
X104696000Y-92885000D02*
X105283000Y-93472000D01*
X96260000Y-94735000D02*
X97630000Y-93365000D01*
X105283000Y-93472000D02*
X105283000Y-98546527D01*
X101600000Y-93885000D02*
X102600000Y-92885000D01*
D23*
X76105000Y-89440000D02*
X74930000Y-88265000D01*
X78645000Y-89440000D02*
X76105000Y-89440000D01*
X80010000Y-90805000D02*
X78645000Y-89440000D01*
X88995000Y-89630000D02*
X90170000Y-90805000D01*
X80010000Y-88265000D02*
X81375000Y-89630000D01*
X81375000Y-89630000D02*
X88995000Y-89630000D01*
G04 #@! TA.AperFunction,Conductor*
G36*
X105313058Y-82886561D02*
G01*
X105348134Y-82891178D01*
X105392214Y-82896982D01*
X105423479Y-82905359D01*
X105489665Y-82932774D01*
X105517699Y-82948960D01*
X105574537Y-82992574D01*
X105597425Y-83015462D01*
X105641039Y-83072300D01*
X105657225Y-83100335D01*
X105684639Y-83166519D01*
X105693017Y-83197786D01*
X105703438Y-83276941D01*
X105704499Y-83293126D01*
X105704499Y-84487699D01*
X105704500Y-84487704D01*
X105704500Y-84606959D01*
X105712190Y-84633152D01*
X105715947Y-84650425D01*
X105719835Y-84677456D01*
X105731173Y-84702282D01*
X105737354Y-84718856D01*
X105745045Y-84745048D01*
X105745046Y-84745050D01*
X105745047Y-84745052D01*
X105759810Y-84768024D01*
X105768283Y-84783542D01*
X105779622Y-84808371D01*
X105797495Y-84828997D01*
X105808097Y-84843161D01*
X105822855Y-84866126D01*
X105843487Y-84884004D01*
X105855992Y-84896509D01*
X105873872Y-84917142D01*
X105896836Y-84931900D01*
X105911002Y-84942505D01*
X105927486Y-84956789D01*
X105965260Y-85015567D01*
X105965258Y-85085437D01*
X105927483Y-85144214D01*
X105863927Y-85173238D01*
X105846282Y-85174500D01*
X104206801Y-85174500D01*
X104190616Y-85173439D01*
X104186690Y-85172922D01*
X104159313Y-85169317D01*
X104124055Y-85173959D01*
X104119953Y-85174500D01*
X104061252Y-85182228D01*
X104002551Y-85189956D01*
X103856475Y-85250462D01*
X103806296Y-85288965D01*
X103731032Y-85346718D01*
X103731030Y-85346719D01*
X103731029Y-85346721D01*
X103711804Y-85371774D01*
X103701112Y-85383965D01*
X97238965Y-91846112D01*
X97226773Y-91856805D01*
X97201718Y-91876031D01*
X97177550Y-91907529D01*
X97105463Y-92001474D01*
X97040230Y-92158961D01*
X96996389Y-92213364D01*
X96959604Y-92230774D01*
X96924472Y-92240770D01*
X96725311Y-92339941D01*
X96547762Y-92474019D01*
X96397875Y-92638437D01*
X96280754Y-92827595D01*
X96243842Y-92922876D01*
X96200382Y-93035060D01*
X96159500Y-93253757D01*
X96159500Y-93476243D01*
X96180882Y-93590626D01*
X96200382Y-93694941D01*
X96241125Y-93800111D01*
X96246986Y-93869734D01*
X96214276Y-93931474D01*
X96213236Y-93932527D01*
X96047582Y-94098182D01*
X95986261Y-94131666D01*
X95959903Y-94134500D01*
X94026603Y-94134500D01*
X93959564Y-94114815D01*
X93913809Y-94062011D01*
X93903865Y-93992853D01*
X93914220Y-93958098D01*
X93983903Y-93808663D01*
X94045063Y-93580408D01*
X94065659Y-93345000D01*
X94045063Y-93109592D01*
X93983903Y-92881337D01*
X93884035Y-92667171D01*
X93748495Y-92473599D01*
X93581401Y-92306505D01*
X93395839Y-92176573D01*
X93352216Y-92121998D01*
X93345022Y-92052500D01*
X93376545Y-91990145D01*
X93395837Y-91973428D01*
X93581401Y-91843495D01*
X93748495Y-91676401D01*
X93884035Y-91482830D01*
X93983903Y-91268663D01*
X94045063Y-91040408D01*
X94065659Y-90805000D01*
X94045063Y-90569592D01*
X93983903Y-90341337D01*
X93884035Y-90127171D01*
X93748495Y-89933599D01*
X93581401Y-89766505D01*
X93395839Y-89636573D01*
X93352215Y-89581997D01*
X93345023Y-89512498D01*
X93376545Y-89450144D01*
X93395831Y-89433432D01*
X93581401Y-89303495D01*
X93748495Y-89136401D01*
X93884035Y-88942830D01*
X93983903Y-88728663D01*
X94045063Y-88500408D01*
X94065659Y-88265000D01*
X94045063Y-88029592D01*
X93983903Y-87801337D01*
X93884035Y-87587171D01*
X93748495Y-87393599D01*
X93581401Y-87226505D01*
X93387830Y-87090965D01*
X93173663Y-86991097D01*
X93112501Y-86974709D01*
X92945407Y-86929936D01*
X92710000Y-86909340D01*
X92474592Y-86929936D01*
X92246336Y-86991097D01*
X92032170Y-87090965D01*
X91838598Y-87226505D01*
X91671505Y-87393598D01*
X91541575Y-87579159D01*
X91486998Y-87622784D01*
X91417500Y-87629978D01*
X91355145Y-87598455D01*
X91338425Y-87579159D01*
X91208494Y-87393598D01*
X91041404Y-87226508D01*
X91041401Y-87226505D01*
X90847830Y-87090965D01*
X90633663Y-86991097D01*
X90572502Y-86974709D01*
X90405407Y-86929936D01*
X90169999Y-86909340D01*
X89934592Y-86929936D01*
X89706336Y-86991097D01*
X89492170Y-87090965D01*
X89298598Y-87226505D01*
X89131508Y-87393595D01*
X89001574Y-87579160D01*
X88946997Y-87622785D01*
X88877498Y-87629977D01*
X88815144Y-87598455D01*
X88798429Y-87579164D01*
X88668495Y-87393599D01*
X88501401Y-87226505D01*
X88307830Y-87090965D01*
X88093663Y-86991097D01*
X88032501Y-86974709D01*
X87865407Y-86929936D01*
X87629999Y-86909340D01*
X87394592Y-86929936D01*
X87166336Y-86991097D01*
X86952170Y-87090965D01*
X86758598Y-87226505D01*
X86591505Y-87393598D01*
X86461575Y-87579159D01*
X86406998Y-87622784D01*
X86337500Y-87629978D01*
X86275145Y-87598455D01*
X86258425Y-87579159D01*
X86128494Y-87393598D01*
X85961404Y-87226508D01*
X85961401Y-87226505D01*
X85767830Y-87090965D01*
X85553663Y-86991097D01*
X85492501Y-86974709D01*
X85325407Y-86929936D01*
X85090000Y-86909340D01*
X84854592Y-86929936D01*
X84626336Y-86991097D01*
X84412170Y-87090965D01*
X84218598Y-87226505D01*
X84051505Y-87393598D01*
X83921575Y-87579159D01*
X83866998Y-87622784D01*
X83797500Y-87629978D01*
X83735145Y-87598455D01*
X83718425Y-87579159D01*
X83588494Y-87393598D01*
X83421404Y-87226508D01*
X83421401Y-87226505D01*
X83227830Y-87090965D01*
X83013663Y-86991097D01*
X82952501Y-86974709D01*
X82785407Y-86929936D01*
X82549999Y-86909340D01*
X82314592Y-86929936D01*
X82086336Y-86991097D01*
X81872170Y-87090965D01*
X81678598Y-87226505D01*
X81511505Y-87393598D01*
X81381575Y-87579159D01*
X81326998Y-87622784D01*
X81257500Y-87629978D01*
X81195145Y-87598455D01*
X81178425Y-87579159D01*
X81048494Y-87393598D01*
X80881404Y-87226508D01*
X80881401Y-87226505D01*
X80687830Y-87090965D01*
X80473663Y-86991097D01*
X80412501Y-86974709D01*
X80245407Y-86929936D01*
X80010000Y-86909340D01*
X79774592Y-86929936D01*
X79546336Y-86991097D01*
X79332170Y-87090965D01*
X79138598Y-87226505D01*
X78971505Y-87393598D01*
X78841575Y-87579159D01*
X78786998Y-87622784D01*
X78717500Y-87629978D01*
X78655145Y-87598455D01*
X78638425Y-87579159D01*
X78508494Y-87393598D01*
X78341404Y-87226508D01*
X78341401Y-87226505D01*
X78147830Y-87090965D01*
X77933663Y-86991097D01*
X77872501Y-86974709D01*
X77705407Y-86929936D01*
X77469999Y-86909340D01*
X77234592Y-86929936D01*
X77006336Y-86991097D01*
X76792170Y-87090965D01*
X76598598Y-87226505D01*
X76431505Y-87393598D01*
X76301575Y-87579159D01*
X76246998Y-87622784D01*
X76177500Y-87629978D01*
X76115145Y-87598455D01*
X76098425Y-87579159D01*
X75968494Y-87393598D01*
X75801404Y-87226508D01*
X75801401Y-87226505D01*
X75607830Y-87090965D01*
X75393663Y-86991097D01*
X75332501Y-86974709D01*
X75165407Y-86929936D01*
X74930000Y-86909340D01*
X74694592Y-86929936D01*
X74466336Y-86991097D01*
X74252170Y-87090965D01*
X74058598Y-87226505D01*
X73891505Y-87393598D01*
X73761575Y-87579159D01*
X73706998Y-87622784D01*
X73637500Y-87629978D01*
X73575145Y-87598455D01*
X73558425Y-87579159D01*
X73428494Y-87393598D01*
X73261404Y-87226508D01*
X73261401Y-87226505D01*
X73067830Y-87090965D01*
X72853663Y-86991097D01*
X72792501Y-86974709D01*
X72625407Y-86929936D01*
X72390000Y-86909340D01*
X72154592Y-86929936D01*
X71926336Y-86991097D01*
X71712170Y-87090965D01*
X71518598Y-87226505D01*
X71351505Y-87393598D01*
X71215965Y-87587170D01*
X71116097Y-87801336D01*
X71054936Y-88029592D01*
X71034340Y-88264999D01*
X71054936Y-88500407D01*
X71093022Y-88642546D01*
X71116097Y-88728663D01*
X71215965Y-88942830D01*
X71351505Y-89136401D01*
X71518599Y-89303495D01*
X71712170Y-89439035D01*
X71926337Y-89538903D01*
X72154591Y-89600062D01*
X72154592Y-89600063D01*
X72389999Y-89620659D01*
X72389999Y-89620658D01*
X72390000Y-89620659D01*
X72625408Y-89600063D01*
X72853663Y-89538903D01*
X73067830Y-89439035D01*
X73261401Y-89303495D01*
X73428495Y-89136401D01*
X73558426Y-88950839D01*
X73613002Y-88907216D01*
X73682500Y-88900022D01*
X73744855Y-88931545D01*
X73761571Y-88950837D01*
X73891505Y-89136401D01*
X74058599Y-89303495D01*
X74252170Y-89439035D01*
X74466337Y-89538903D01*
X74694591Y-89600062D01*
X74694592Y-89600063D01*
X74930000Y-89620659D01*
X75165409Y-89600063D01*
X75197658Y-89591421D01*
X75265871Y-89573144D01*
X75335720Y-89574806D01*
X75385646Y-89605237D01*
X75604196Y-89823787D01*
X75617096Y-89839888D01*
X75668223Y-89887900D01*
X75671020Y-89890611D01*
X75690529Y-89910120D01*
X75693709Y-89912587D01*
X75702571Y-89920155D01*
X75734418Y-89950062D01*
X75751972Y-89959712D01*
X75768236Y-89970396D01*
X75779972Y-89979499D01*
X75784064Y-89982673D01*
X75808909Y-89993424D01*
X75824152Y-90000021D01*
X75834631Y-90005154D01*
X75872908Y-90026197D01*
X75892306Y-90031177D01*
X75910708Y-90037477D01*
X75929104Y-90045438D01*
X75972261Y-90052273D01*
X75983668Y-90054635D01*
X76025981Y-90065500D01*
X76025984Y-90065500D01*
X76026338Y-90065591D01*
X76086376Y-90101329D01*
X76117561Y-90163853D01*
X76119500Y-90185695D01*
X76119500Y-91699560D01*
X76119500Y-91699578D01*
X76119501Y-91702872D01*
X76119853Y-91706152D01*
X76119854Y-91706159D01*
X76125909Y-91762484D01*
X76143614Y-91809952D01*
X76176204Y-91897331D01*
X76262454Y-92012546D01*
X76377669Y-92098796D01*
X76512517Y-92149091D01*
X76572127Y-92155500D01*
X78367872Y-92155499D01*
X78427483Y-92149091D01*
X78562331Y-92098796D01*
X78677546Y-92012546D01*
X78763796Y-91897331D01*
X78812810Y-91765916D01*
X78854681Y-91709983D01*
X78920146Y-91685566D01*
X78988419Y-91700418D01*
X79016672Y-91721568D01*
X79138599Y-91843495D01*
X79332170Y-91979035D01*
X79546337Y-92078903D01*
X79774592Y-92140063D01*
X80010000Y-92160659D01*
X80245408Y-92140063D01*
X80473663Y-92078903D01*
X80687830Y-91979035D01*
X80881401Y-91843495D01*
X81048495Y-91676401D01*
X81178426Y-91490839D01*
X81233002Y-91447216D01*
X81302500Y-91440022D01*
X81364855Y-91471545D01*
X81381571Y-91490837D01*
X81511505Y-91676401D01*
X81678599Y-91843495D01*
X81872170Y-91979035D01*
X82086337Y-92078903D01*
X82312748Y-92139569D01*
X82314592Y-92140063D01*
X82549999Y-92160659D01*
X82549999Y-92160658D01*
X82550000Y-92160659D01*
X82785408Y-92140063D01*
X83013663Y-92078903D01*
X83227830Y-91979035D01*
X83421401Y-91843495D01*
X83588495Y-91676401D01*
X83718732Y-91490403D01*
X83773307Y-91446780D01*
X83842805Y-91439586D01*
X83905160Y-91471109D01*
X83921880Y-91490405D01*
X83975073Y-91566373D01*
X84606922Y-90934523D01*
X84630507Y-91014844D01*
X84708239Y-91135798D01*
X84816900Y-91229952D01*
X84947685Y-91289680D01*
X84957466Y-91291086D01*
X84328625Y-91919925D01*
X84412420Y-91978599D01*
X84626507Y-92078430D01*
X84854681Y-92139569D01*
X85090000Y-92160157D01*
X85325318Y-92139569D01*
X85553492Y-92078430D01*
X85767576Y-91978600D01*
X85851373Y-91919925D01*
X85222533Y-91291086D01*
X85232315Y-91289680D01*
X85363100Y-91229952D01*
X85471761Y-91135798D01*
X85549493Y-91014844D01*
X85573076Y-90934524D01*
X86204925Y-91566373D01*
X86258119Y-91490405D01*
X86312696Y-91446780D01*
X86382194Y-91439586D01*
X86444549Y-91471109D01*
X86461265Y-91490400D01*
X86591505Y-91676401D01*
X86758599Y-91843495D01*
X86952170Y-91979035D01*
X87166337Y-92078903D01*
X87392748Y-92139569D01*
X87394592Y-92140063D01*
X87629999Y-92160659D01*
X87629999Y-92160658D01*
X87630000Y-92160659D01*
X87865408Y-92140063D01*
X88093663Y-92078903D01*
X88307830Y-91979035D01*
X88501401Y-91843495D01*
X88668495Y-91676401D01*
X88798426Y-91490839D01*
X88853002Y-91447216D01*
X88922500Y-91440022D01*
X88984855Y-91471545D01*
X89001571Y-91490837D01*
X89131505Y-91676401D01*
X89298599Y-91843495D01*
X89492170Y-91979035D01*
X89706337Y-92078903D01*
X89932748Y-92139569D01*
X89934592Y-92140063D01*
X90169999Y-92160659D01*
X90169999Y-92160658D01*
X90170000Y-92160659D01*
X90405408Y-92140063D01*
X90633663Y-92078903D01*
X90847830Y-91979035D01*
X91041401Y-91843495D01*
X91208495Y-91676401D01*
X91338426Y-91490839D01*
X91393002Y-91447216D01*
X91462500Y-91440022D01*
X91524855Y-91471545D01*
X91541571Y-91490837D01*
X91671505Y-91676401D01*
X91838599Y-91843495D01*
X92024160Y-91973426D01*
X92067783Y-92028002D01*
X92074976Y-92097501D01*
X92043454Y-92159855D01*
X92024158Y-92176575D01*
X91847954Y-92299955D01*
X91838595Y-92306508D01*
X91671505Y-92473598D01*
X91535965Y-92667170D01*
X91436097Y-92881336D01*
X91374936Y-93109592D01*
X91354340Y-93344999D01*
X91374936Y-93580407D01*
X91411214Y-93715798D01*
X91436097Y-93808663D01*
X91505779Y-93958096D01*
X91516271Y-94027172D01*
X91487751Y-94090956D01*
X91429275Y-94129196D01*
X91393397Y-94134500D01*
X83747487Y-94134500D01*
X83731302Y-94133439D01*
X83727376Y-94132922D01*
X83699999Y-94129317D01*
X83543237Y-94149956D01*
X83397161Y-94210462D01*
X83363286Y-94236455D01*
X83307428Y-94279317D01*
X83295524Y-94288450D01*
X83271716Y-94306718D01*
X83252494Y-94331769D01*
X83241801Y-94343961D01*
X77953530Y-99632233D01*
X77892207Y-99665718D01*
X77833756Y-99664327D01*
X77705406Y-99629936D01*
X77469999Y-99609340D01*
X77234592Y-99629936D01*
X77006336Y-99691097D01*
X76792170Y-99790965D01*
X76598598Y-99926505D01*
X76431505Y-100093598D01*
X76295965Y-100287170D01*
X76196097Y-100501336D01*
X76134936Y-100729592D01*
X76114340Y-100964999D01*
X76134936Y-101200407D01*
X76160496Y-101295798D01*
X76196097Y-101428663D01*
X76295965Y-101642830D01*
X76431505Y-101836401D01*
X76598599Y-102003495D01*
X76784160Y-102133426D01*
X76827783Y-102188002D01*
X76834976Y-102257501D01*
X76803454Y-102319855D01*
X76784159Y-102336575D01*
X76598599Y-102466505D01*
X76476285Y-102588819D01*
X76414962Y-102622303D01*
X76345270Y-102617319D01*
X76289337Y-102575447D01*
X76272422Y-102544471D01*
X76223352Y-102412911D01*
X76137188Y-102297811D01*
X76022089Y-102211647D01*
X75887371Y-102161400D01*
X75831132Y-102155354D01*
X75824518Y-102155000D01*
X75180000Y-102155000D01*
X75180000Y-103058505D01*
X75075161Y-103010627D01*
X74966473Y-102995000D01*
X74893527Y-102995000D01*
X74784839Y-103010627D01*
X74680000Y-103058505D01*
X74680000Y-102155000D01*
X74035482Y-102155000D01*
X74028867Y-102155354D01*
X73972628Y-102161400D01*
X73837910Y-102211647D01*
X73722811Y-102297811D01*
X73636646Y-102412913D01*
X73587576Y-102544472D01*
X73545705Y-102600405D01*
X73480240Y-102624821D01*
X73411967Y-102609969D01*
X73383714Y-102588818D01*
X73261404Y-102466508D01*
X73261401Y-102466505D01*
X73067830Y-102330965D01*
X72853663Y-102231097D01*
X72784250Y-102212498D01*
X72625407Y-102169936D01*
X72390000Y-102149340D01*
X72154592Y-102169936D01*
X71926336Y-102231097D01*
X71712170Y-102330965D01*
X71518598Y-102466505D01*
X71351505Y-102633598D01*
X71215965Y-102827170D01*
X71116097Y-103041336D01*
X71054936Y-103269592D01*
X71034340Y-103504999D01*
X71054936Y-103740407D01*
X71084788Y-103851816D01*
X71116097Y-103968663D01*
X71215965Y-104182830D01*
X71351505Y-104376401D01*
X71518599Y-104543495D01*
X71712170Y-104679035D01*
X71926337Y-104778903D01*
X72154592Y-104840063D01*
X72390000Y-104860659D01*
X72625408Y-104840063D01*
X72853663Y-104778903D01*
X73067830Y-104679035D01*
X73261401Y-104543495D01*
X73383717Y-104421178D01*
X73445036Y-104387696D01*
X73514728Y-104392680D01*
X73570662Y-104434551D01*
X73587577Y-104465528D01*
X73636647Y-104597088D01*
X73722811Y-104712188D01*
X73837910Y-104798352D01*
X73972628Y-104848599D01*
X74028867Y-104854645D01*
X74035482Y-104855000D01*
X74680000Y-104855000D01*
X74680000Y-103951494D01*
X74784839Y-103999373D01*
X74893527Y-104015000D01*
X74966473Y-104015000D01*
X75075161Y-103999373D01*
X75180000Y-103951494D01*
X75180000Y-104855000D01*
X75824518Y-104855000D01*
X75831132Y-104854645D01*
X75887371Y-104848599D01*
X76022089Y-104798352D01*
X76137188Y-104712188D01*
X76223352Y-104597089D01*
X76272422Y-104465528D01*
X76314294Y-104409595D01*
X76379758Y-104385178D01*
X76448031Y-104400030D01*
X76476285Y-104421181D01*
X76598599Y-104543495D01*
X76792170Y-104679035D01*
X77006337Y-104778903D01*
X77234591Y-104840063D01*
X77234592Y-104840063D01*
X77469999Y-104860659D01*
X77469999Y-104860658D01*
X77470000Y-104860659D01*
X77705408Y-104840063D01*
X77933663Y-104778903D01*
X78147830Y-104679035D01*
X78341401Y-104543495D01*
X78508495Y-104376401D01*
X78638426Y-104190839D01*
X78693002Y-104147216D01*
X78762500Y-104140022D01*
X78824855Y-104171545D01*
X78841571Y-104190837D01*
X78971505Y-104376401D01*
X79138599Y-104543495D01*
X79332170Y-104679035D01*
X79546337Y-104778903D01*
X79774592Y-104840063D01*
X80010000Y-104860659D01*
X80245408Y-104840063D01*
X80473663Y-104778903D01*
X80687830Y-104679035D01*
X80881401Y-104543495D01*
X81048495Y-104376401D01*
X81178426Y-104190839D01*
X81233002Y-104147216D01*
X81302500Y-104140022D01*
X81364855Y-104171545D01*
X81381571Y-104190837D01*
X81511505Y-104376401D01*
X81678599Y-104543495D01*
X81872170Y-104679035D01*
X82086337Y-104778903D01*
X82314591Y-104840063D01*
X82314592Y-104840063D01*
X82549999Y-104860659D01*
X82549999Y-104860658D01*
X82550000Y-104860659D01*
X82785408Y-104840063D01*
X83013663Y-104778903D01*
X83227830Y-104679035D01*
X83421401Y-104543495D01*
X83588495Y-104376401D01*
X83718426Y-104190839D01*
X83773002Y-104147216D01*
X83842500Y-104140022D01*
X83904855Y-104171545D01*
X83921571Y-104190837D01*
X84051505Y-104376401D01*
X84218599Y-104543495D01*
X84412170Y-104679035D01*
X84626337Y-104778903D01*
X84854592Y-104840063D01*
X85090000Y-104860659D01*
X85325408Y-104840063D01*
X85553663Y-104778903D01*
X85767830Y-104679035D01*
X85961401Y-104543495D01*
X86128495Y-104376401D01*
X86258426Y-104190839D01*
X86313002Y-104147216D01*
X86382500Y-104140022D01*
X86444855Y-104171545D01*
X86461571Y-104190837D01*
X86591505Y-104376401D01*
X86758599Y-104543495D01*
X86952170Y-104679035D01*
X87166337Y-104778903D01*
X87394592Y-104840063D01*
X87629999Y-104860659D01*
X87629999Y-104860658D01*
X87630000Y-104860659D01*
X87865408Y-104840063D01*
X88093663Y-104778903D01*
X88307830Y-104679035D01*
X88501401Y-104543495D01*
X88668495Y-104376401D01*
X88798426Y-104190839D01*
X88853002Y-104147216D01*
X88922500Y-104140022D01*
X88984855Y-104171545D01*
X89001571Y-104190837D01*
X89131505Y-104376401D01*
X89298599Y-104543495D01*
X89492170Y-104679035D01*
X89706337Y-104778903D01*
X89934591Y-104840063D01*
X89934592Y-104840063D01*
X90169999Y-104860659D01*
X90169999Y-104860658D01*
X90170000Y-104860659D01*
X90405408Y-104840063D01*
X90633663Y-104778903D01*
X90847830Y-104679035D01*
X91041401Y-104543495D01*
X91208495Y-104376401D01*
X91338426Y-104190839D01*
X91393002Y-104147216D01*
X91462500Y-104140022D01*
X91524855Y-104171545D01*
X91541571Y-104190837D01*
X91671505Y-104376401D01*
X91838599Y-104543495D01*
X92032170Y-104679035D01*
X92246337Y-104778903D01*
X92474592Y-104840063D01*
X92710000Y-104860659D01*
X92945408Y-104840063D01*
X93173663Y-104778903D01*
X93387830Y-104679035D01*
X93581401Y-104543495D01*
X93748495Y-104376401D01*
X93884035Y-104182830D01*
X93983903Y-103968663D01*
X94045063Y-103740408D01*
X94065659Y-103505000D01*
X94045063Y-103269592D01*
X93983903Y-103041337D01*
X93884035Y-102827171D01*
X93748495Y-102633599D01*
X93581401Y-102466505D01*
X93395839Y-102336573D01*
X93352216Y-102281998D01*
X93345022Y-102212500D01*
X93376545Y-102150145D01*
X93395837Y-102133428D01*
X93581401Y-102003495D01*
X93748495Y-101836401D01*
X93884035Y-101642830D01*
X93983903Y-101428663D01*
X94045063Y-101200408D01*
X94065659Y-100965000D01*
X94045063Y-100729592D01*
X94036900Y-100699128D01*
X94002728Y-100571593D01*
X94004391Y-100501743D01*
X94043554Y-100443881D01*
X94107782Y-100416377D01*
X94122503Y-100415500D01*
X96172513Y-100415500D01*
X96188697Y-100416560D01*
X96220000Y-100420682D01*
X96376762Y-100400044D01*
X96522841Y-100339536D01*
X96551840Y-100317284D01*
X96648282Y-100243282D01*
X96667509Y-100218223D01*
X96678190Y-100206043D01*
X97019276Y-99864957D01*
X97080597Y-99831474D01*
X97150289Y-99836458D01*
X97187590Y-99864037D01*
X97188765Y-99862506D01*
X97226768Y-99891666D01*
X97238964Y-99902362D01*
X103102636Y-105766034D01*
X103113331Y-105778229D01*
X103132554Y-105803282D01*
X103239052Y-105885000D01*
X103257997Y-105899537D01*
X103331035Y-105929790D01*
X103404075Y-105960044D01*
X103529535Y-105976561D01*
X103560836Y-105980682D01*
X103560836Y-105980681D01*
X103560837Y-105980682D01*
X103592139Y-105976560D01*
X103608324Y-105975500D01*
X106635501Y-105975500D01*
X106702540Y-105995185D01*
X106748295Y-106047989D01*
X106759501Y-106099500D01*
X106759501Y-106410499D01*
X106739816Y-106477538D01*
X106687012Y-106523293D01*
X106635501Y-106534499D01*
X106133039Y-106534499D01*
X106106844Y-106542189D01*
X106089567Y-106545947D01*
X106062541Y-106549833D01*
X106037711Y-106561173D01*
X106021140Y-106567354D01*
X105994947Y-106575045D01*
X105971979Y-106589805D01*
X105956463Y-106598277D01*
X105931629Y-106609619D01*
X105910998Y-106627496D01*
X105896842Y-106638093D01*
X105873871Y-106652856D01*
X105855992Y-106673489D01*
X105843490Y-106685991D01*
X105822857Y-106703870D01*
X105808094Y-106726841D01*
X105797497Y-106740997D01*
X105779620Y-106761628D01*
X105768278Y-106786462D01*
X105759806Y-106801978D01*
X105745046Y-106824946D01*
X105737355Y-106851139D01*
X105731174Y-106867710D01*
X105719834Y-106892540D01*
X105715948Y-106919566D01*
X105712190Y-106936843D01*
X105704500Y-106963037D01*
X105704500Y-108476872D01*
X105703439Y-108493059D01*
X105693017Y-108572215D01*
X105684639Y-108603480D01*
X105657225Y-108669664D01*
X105641039Y-108697699D01*
X105597425Y-108754537D01*
X105574537Y-108777425D01*
X105517699Y-108821039D01*
X105489664Y-108837225D01*
X105423480Y-108864639D01*
X105392215Y-108873017D01*
X105329008Y-108881339D01*
X105313057Y-108883439D01*
X105296873Y-108884500D01*
X73812558Y-108884500D01*
X73807434Y-108884394D01*
X73402271Y-108867638D01*
X73392057Y-108866792D01*
X72992196Y-108816949D01*
X72982087Y-108815262D01*
X72587712Y-108732570D01*
X72577777Y-108730054D01*
X72191574Y-108615077D01*
X72181881Y-108611749D01*
X71806496Y-108465272D01*
X71797111Y-108461155D01*
X71435117Y-108284187D01*
X71426103Y-108279310D01*
X71079933Y-108073038D01*
X71071353Y-108067432D01*
X70743410Y-107833285D01*
X70735323Y-107826990D01*
X70427842Y-107566567D01*
X70420302Y-107559626D01*
X70135373Y-107274697D01*
X70128432Y-107267157D01*
X70089570Y-107221273D01*
X69868004Y-106959670D01*
X69861714Y-106951589D01*
X69841655Y-106923495D01*
X69627563Y-106623640D01*
X69621961Y-106615066D01*
X69618715Y-106609619D01*
X69415689Y-106268896D01*
X69410812Y-106259882D01*
X69233844Y-105897888D01*
X69229727Y-105888503D01*
X69228360Y-105884999D01*
X98194340Y-105884999D01*
X98214936Y-106120407D01*
X98252308Y-106259882D01*
X98276097Y-106348663D01*
X98375965Y-106562829D01*
X98511505Y-106756401D01*
X98678599Y-106923495D01*
X98872171Y-107059035D01*
X99086337Y-107158903D01*
X99314592Y-107220063D01*
X99491034Y-107235500D01*
X99493742Y-107235500D01*
X99606258Y-107235500D01*
X99608966Y-107235500D01*
X99785408Y-107220063D01*
X100013663Y-107158903D01*
X100227829Y-107059035D01*
X100421401Y-106923495D01*
X100588495Y-106756401D01*
X100724035Y-106562830D01*
X100823903Y-106348663D01*
X100885063Y-106120408D01*
X100905659Y-105885000D01*
X100885063Y-105649592D01*
X100823903Y-105421337D01*
X100724035Y-105207171D01*
X100588495Y-105013599D01*
X100421401Y-104846505D01*
X100227829Y-104710965D01*
X100013663Y-104611097D01*
X99961384Y-104597089D01*
X99785407Y-104549936D01*
X99611667Y-104534736D01*
X99611659Y-104534735D01*
X99608966Y-104534500D01*
X99491034Y-104534500D01*
X99488341Y-104534735D01*
X99488332Y-104534736D01*
X99314592Y-104549936D01*
X99086336Y-104611097D01*
X98872170Y-104710965D01*
X98678598Y-104846505D01*
X98511508Y-105013595D01*
X98511505Y-105013598D01*
X98511505Y-105013599D01*
X98438948Y-105117222D01*
X98375964Y-105207172D01*
X98276097Y-105421337D01*
X98214936Y-105649592D01*
X98194340Y-105884999D01*
X69228360Y-105884999D01*
X69083999Y-105515037D01*
X69083245Y-105513106D01*
X69079926Y-105503439D01*
X68964941Y-105117209D01*
X68962432Y-105107301D01*
X68879734Y-104712898D01*
X68878052Y-104702818D01*
X68828205Y-104302921D01*
X68827362Y-104292748D01*
X68810604Y-103887564D01*
X68810498Y-103882440D01*
X68810498Y-93554202D01*
X68810498Y-85885000D01*
X98194340Y-85885000D01*
X98214936Y-86120407D01*
X98271866Y-86332873D01*
X98276097Y-86348663D01*
X98375965Y-86562829D01*
X98511505Y-86756401D01*
X98678599Y-86923495D01*
X98872171Y-87059035D01*
X99086337Y-87158903D01*
X99314592Y-87220063D01*
X99491034Y-87235500D01*
X99493742Y-87235500D01*
X99606258Y-87235500D01*
X99608966Y-87235500D01*
X99785408Y-87220063D01*
X100013663Y-87158903D01*
X100227829Y-87059035D01*
X100421401Y-86923495D01*
X100588495Y-86756401D01*
X100724035Y-86562830D01*
X100823903Y-86348663D01*
X100885063Y-86120408D01*
X100905659Y-85885000D01*
X100885063Y-85649592D01*
X100823903Y-85421337D01*
X100724035Y-85207171D01*
X100588495Y-85013599D01*
X100421401Y-84846505D01*
X100227829Y-84710965D01*
X100013663Y-84611097D01*
X99785407Y-84549936D01*
X99611667Y-84534736D01*
X99611659Y-84534735D01*
X99608966Y-84534500D01*
X99491034Y-84534500D01*
X99488341Y-84534735D01*
X99488332Y-84534736D01*
X99314592Y-84549936D01*
X99086336Y-84611097D01*
X98872170Y-84710965D01*
X98678598Y-84846505D01*
X98511508Y-85013595D01*
X98511505Y-85013598D01*
X98511505Y-85013599D01*
X98388019Y-85189956D01*
X98375964Y-85207172D01*
X98276097Y-85421337D01*
X98214936Y-85649592D01*
X98194340Y-85885000D01*
X68810498Y-85885000D01*
X68810498Y-83293112D01*
X68811557Y-83276958D01*
X68821983Y-83197779D01*
X68830359Y-83166522D01*
X68857776Y-83100331D01*
X68873960Y-83072300D01*
X68917574Y-83015462D01*
X68940462Y-82992574D01*
X68997300Y-82948960D01*
X69025331Y-82932776D01*
X69091522Y-82905359D01*
X69122783Y-82896982D01*
X69178781Y-82889610D01*
X69201942Y-82886561D01*
X69218127Y-82885500D01*
X69275892Y-82885500D01*
X105239108Y-82885500D01*
X105296873Y-82885500D01*
X105313058Y-82886561D01*
G37*
G04 #@! TD.AperFunction*
G04 #@! TA.AperFunction,Conductor*
G36*
X84630507Y-101174844D02*
G01*
X84708239Y-101295798D01*
X84816900Y-101389952D01*
X84947685Y-101449680D01*
X84957466Y-101451086D01*
X84328625Y-102079925D01*
X84404594Y-102133119D01*
X84448219Y-102187696D01*
X84455413Y-102257194D01*
X84423890Y-102319549D01*
X84404595Y-102336269D01*
X84218595Y-102466508D01*
X84051505Y-102633598D01*
X83921575Y-102819159D01*
X83866998Y-102862784D01*
X83797500Y-102869978D01*
X83735145Y-102838455D01*
X83718425Y-102819159D01*
X83588494Y-102633598D01*
X83421401Y-102466505D01*
X83347283Y-102414607D01*
X83235839Y-102336573D01*
X83192216Y-102281998D01*
X83185022Y-102212500D01*
X83216545Y-102150145D01*
X83235837Y-102133428D01*
X83421401Y-102003495D01*
X83588495Y-101836401D01*
X83718732Y-101650403D01*
X83773307Y-101606780D01*
X83842805Y-101599586D01*
X83905160Y-101631109D01*
X83921880Y-101650405D01*
X83975073Y-101726373D01*
X84606922Y-101094523D01*
X84630507Y-101174844D01*
G37*
G04 #@! TD.AperFunction*
G04 #@! TA.AperFunction,Conductor*
G36*
X86204925Y-101726373D02*
G01*
X86258119Y-101650405D01*
X86312696Y-101606780D01*
X86382194Y-101599586D01*
X86444549Y-101631109D01*
X86461265Y-101650400D01*
X86591505Y-101836401D01*
X86758599Y-102003495D01*
X86944160Y-102133426D01*
X86987783Y-102188002D01*
X86994976Y-102257501D01*
X86963454Y-102319855D01*
X86944160Y-102336574D01*
X86835140Y-102412911D01*
X86758595Y-102466508D01*
X86591505Y-102633598D01*
X86461575Y-102819159D01*
X86406998Y-102862784D01*
X86337500Y-102869978D01*
X86275145Y-102838455D01*
X86258425Y-102819159D01*
X86128494Y-102633598D01*
X85961404Y-102466508D01*
X85961401Y-102466505D01*
X85775402Y-102336267D01*
X85731780Y-102281692D01*
X85724587Y-102212193D01*
X85756109Y-102149839D01*
X85775405Y-102133119D01*
X85851373Y-102079925D01*
X85222533Y-101451086D01*
X85232315Y-101449680D01*
X85363100Y-101389952D01*
X85471761Y-101295798D01*
X85549493Y-101174844D01*
X85573076Y-101094524D01*
X86204925Y-101726373D01*
G37*
G04 #@! TD.AperFunction*
G04 #@! TA.AperFunction,Conductor*
G36*
X101966941Y-99105184D02*
G01*
X101987583Y-99121818D01*
X102099316Y-99233551D01*
X102132801Y-99294874D01*
X102127817Y-99364566D01*
X102086363Y-99420186D01*
X101988098Y-99494392D01*
X101838278Y-99658737D01*
X101721202Y-99847821D01*
X101640864Y-100055199D01*
X101625948Y-100135000D01*
X102366314Y-100135000D01*
X102340507Y-100175156D01*
X102300000Y-100313111D01*
X102300000Y-100456889D01*
X102340507Y-100594844D01*
X102366314Y-100635000D01*
X101684000Y-100635000D01*
X101616961Y-100615315D01*
X101588491Y-100582458D01*
X101560000Y-100567040D01*
X101475517Y-100622235D01*
X101292634Y-100790592D01*
X101139947Y-100986764D01*
X101025114Y-101198958D01*
X100975894Y-101248548D01*
X100907678Y-101263656D01*
X100842122Y-101239486D01*
X100828378Y-101227621D01*
X99536819Y-99936062D01*
X99503334Y-99874739D01*
X99500500Y-99848381D01*
X99500500Y-99680942D01*
X99520185Y-99613903D01*
X99572989Y-99568148D01*
X99642147Y-99558204D01*
X99647230Y-99559043D01*
X99788757Y-99585500D01*
X99788761Y-99585500D01*
X100011241Y-99585500D01*
X100011243Y-99585500D01*
X100229940Y-99544618D01*
X100437401Y-99464247D01*
X100626562Y-99347124D01*
X100747222Y-99237128D01*
X100790979Y-99197238D01*
X100805872Y-99177517D01*
X100838149Y-99134773D01*
X100894259Y-99093137D01*
X100937105Y-99085499D01*
X101899902Y-99085499D01*
X101966941Y-99105184D01*
G37*
G04 #@! TD.AperFunction*
G04 #@! TA.AperFunction,Conductor*
G36*
X106290107Y-100404109D02*
G01*
X106301138Y-100413900D01*
X106553272Y-100666034D01*
X106563967Y-100678229D01*
X106580003Y-100699128D01*
X106583191Y-100703282D01*
X106622118Y-100733151D01*
X106622600Y-100733521D01*
X106710986Y-100801342D01*
X106752189Y-100857770D01*
X106759500Y-100899718D01*
X106759500Y-101329560D01*
X106759500Y-101329578D01*
X106759501Y-101332872D01*
X106759853Y-101336152D01*
X106759854Y-101336159D01*
X106765909Y-101392484D01*
X106802902Y-101491666D01*
X106807886Y-101561357D01*
X106802902Y-101578332D01*
X106765909Y-101677514D01*
X106765909Y-101677517D01*
X106759500Y-101737127D01*
X106759500Y-101740448D01*
X106759500Y-101740449D01*
X106759500Y-102127703D01*
X106739815Y-102194742D01*
X106687011Y-102240497D01*
X106682955Y-102242263D01*
X106663162Y-102250461D01*
X106622064Y-102281997D01*
X106537718Y-102346718D01*
X106537716Y-102346719D01*
X106537715Y-102346721D01*
X106518490Y-102371774D01*
X106507798Y-102383965D01*
X106277582Y-102614182D01*
X106216262Y-102647666D01*
X106189903Y-102650500D01*
X104858809Y-102650500D01*
X104791770Y-102630815D01*
X104746015Y-102578011D01*
X104736071Y-102508853D01*
X104749754Y-102467483D01*
X104778368Y-102414607D01*
X104859083Y-102179491D01*
X104879023Y-102060000D01*
X103945882Y-102060000D01*
X103984556Y-101966631D01*
X104005177Y-101810000D01*
X103984556Y-101653369D01*
X103945882Y-101560000D01*
X104879022Y-101560000D01*
X104879023Y-101559999D01*
X104859083Y-101440508D01*
X104778369Y-101205395D01*
X104683663Y-101030394D01*
X104669068Y-100962065D01*
X104677092Y-100926582D01*
X104726263Y-100799658D01*
X104768835Y-100744256D01*
X104834602Y-100720666D01*
X104892325Y-100731172D01*
X104896770Y-100733151D01*
X105069697Y-100810144D01*
X105069700Y-100810144D01*
X105069701Y-100810145D01*
X105254852Y-100849500D01*
X105254854Y-100849500D01*
X105444148Y-100849500D01*
X105580083Y-100820606D01*
X105629303Y-100810144D01*
X105802230Y-100733151D01*
X105819414Y-100720666D01*
X105955370Y-100621889D01*
X106004757Y-100567040D01*
X106082033Y-100481216D01*
X106106070Y-100439581D01*
X106156635Y-100391367D01*
X106225241Y-100378142D01*
X106290107Y-100404109D01*
G37*
G04 #@! TD.AperFunction*
G04 #@! TA.AperFunction,Conductor*
G36*
X103140507Y-94094844D02*
G01*
X103218239Y-94215798D01*
X103326900Y-94309952D01*
X103457685Y-94369680D01*
X103467466Y-94371086D01*
X102994525Y-94844026D01*
X102972123Y-94861771D01*
X102873437Y-94922876D01*
X102709019Y-95072762D01*
X102698954Y-95086092D01*
X102642845Y-95127728D01*
X102573133Y-95132419D01*
X102511951Y-95098677D01*
X102501046Y-95086092D01*
X102499032Y-95083425D01*
X102490981Y-95072764D01*
X102385531Y-94976633D01*
X102349253Y-94916926D01*
X102351013Y-94847079D01*
X102385531Y-94793366D01*
X102490981Y-94697236D01*
X102625058Y-94519689D01*
X102629235Y-94511300D01*
X102652553Y-94478892D01*
X103116922Y-94014522D01*
X103140507Y-94094844D01*
G37*
G04 #@! TD.AperFunction*
G04 #@! TA.AperFunction,Conductor*
G36*
X104646181Y-94577628D02*
G01*
X104679666Y-94638951D01*
X104682500Y-94665309D01*
X104682500Y-94966523D01*
X104662815Y-95033562D01*
X104610011Y-95079317D01*
X104540853Y-95089261D01*
X104477297Y-95060236D01*
X104474962Y-95058160D01*
X104326564Y-94922877D01*
X104227876Y-94861772D01*
X104205473Y-94844026D01*
X103732534Y-94371086D01*
X103742315Y-94369680D01*
X103873100Y-94309952D01*
X103981761Y-94215798D01*
X104059493Y-94094844D01*
X104083076Y-94014523D01*
X104646181Y-94577628D01*
G37*
G04 #@! TD.AperFunction*
G04 #@! TA.AperFunction,Conductor*
G36*
X100938835Y-90512911D02*
G01*
X100994768Y-90554783D01*
X101012782Y-90588830D01*
X101021631Y-90614606D01*
X101139946Y-90833233D01*
X101292631Y-91029403D01*
X101475526Y-91197770D01*
X101559999Y-91252958D01*
X101562109Y-91251816D01*
X101579685Y-91191961D01*
X101632489Y-91146206D01*
X101684000Y-91135000D01*
X102366314Y-91135000D01*
X102340507Y-91175156D01*
X102300000Y-91313111D01*
X102300000Y-91456889D01*
X102340507Y-91594844D01*
X102366314Y-91635000D01*
X101625948Y-91635000D01*
X101640864Y-91714800D01*
X101721202Y-91922178D01*
X101838278Y-92111262D01*
X101988102Y-92275611D01*
X102086361Y-92349812D01*
X102127998Y-92405920D01*
X102132690Y-92475632D01*
X102099316Y-92536447D01*
X101959680Y-92676083D01*
X101898357Y-92709568D01*
X101849215Y-92710291D01*
X101796250Y-92700390D01*
X101711243Y-92684500D01*
X101488757Y-92684500D01*
X101379408Y-92704941D01*
X101270058Y-92725382D01*
X101075381Y-92800800D01*
X101005758Y-92806662D01*
X100944018Y-92773952D01*
X100932919Y-92758715D01*
X100931557Y-92759745D01*
X100908860Y-92729690D01*
X100383076Y-93255474D01*
X100359493Y-93175156D01*
X100281761Y-93054202D01*
X100173100Y-92960048D01*
X100042315Y-92900320D01*
X100032533Y-92898913D01*
X100553327Y-92378119D01*
X100437179Y-92306202D01*
X100229801Y-92225864D01*
X100011194Y-92185000D01*
X99788805Y-92185000D01*
X99647283Y-92211454D01*
X99577768Y-92204422D01*
X99523090Y-92160925D01*
X99500608Y-92094771D01*
X99500499Y-92089565D01*
X99500499Y-91900096D01*
X99520184Y-91833057D01*
X99536813Y-91812420D01*
X100807825Y-90541409D01*
X100869143Y-90507927D01*
X100938835Y-90512911D01*
G37*
G04 #@! TD.AperFunction*
M02*
