G04 #@! TF.GenerationSoftware,KiCad,Pcbnew,7.0.2*
G04 #@! TF.CreationDate,2024-01-20T07:38:39+00:00*
G04 #@! TF.ProjectId,game-boy-zero-link-board,67616d65-2d62-46f7-992d-7a65726f2d6c,rev?*
G04 #@! TF.SameCoordinates,Original*
G04 #@! TF.FileFunction,Legend,Bot*
G04 #@! TF.FilePolarity,Positive*
%FSLAX46Y46*%
G04 Gerber Fmt 4.6, Leading zero omitted, Abs format (unit mm)*
G04 Created by KiCad (PCBNEW 7.0.2) date 2024-01-20 07:38:39*
%MOMM*%
%LPD*%
G01*
G04 APERTURE LIST*
%ADD10C,0.329000*%
%ADD11C,0.200000*%
%ADD12C,0.250000*%
%ADD13C,0.300000*%
%ADD14C,0.127000*%
%ADD15C,0.120000*%
G04 APERTURE END LIST*
D10*
X106590500Y-105410000D02*
G75*
G03*
X106590500Y-105410000I-164500J0D01*
G01*
D11*
X104615000Y-108005000D02*
X103115000Y-108005000D01*
X103210000Y-87685000D02*
X102710000Y-87185000D01*
X103210000Y-83685000D02*
X104710000Y-83685000D01*
X102615000Y-107505000D02*
X102615000Y-104505000D01*
X102710000Y-87185000D02*
X102710000Y-84185000D01*
X103210000Y-83685000D02*
X102710000Y-84185000D01*
X104615000Y-104005000D02*
X104615000Y-108005000D01*
X104710000Y-87685000D02*
X103210000Y-87685000D01*
X103115000Y-104005000D02*
X102615000Y-104505000D01*
X104710000Y-83685000D02*
X104710000Y-87685000D01*
D10*
X106590500Y-89789000D02*
G75*
G03*
X106590500Y-89789000I-164500J0D01*
G01*
D11*
X103115000Y-108005000D02*
X102615000Y-107505000D01*
X103115000Y-104005000D02*
X104615000Y-104005000D01*
D12*
X75244761Y-100323095D02*
X75292380Y-100418333D01*
X75292380Y-100418333D02*
X75292380Y-100561190D01*
X75292380Y-100561190D02*
X75244761Y-100704047D01*
X75244761Y-100704047D02*
X75149523Y-100799285D01*
X75149523Y-100799285D02*
X75054285Y-100846904D01*
X75054285Y-100846904D02*
X74863809Y-100894523D01*
X74863809Y-100894523D02*
X74720952Y-100894523D01*
X74720952Y-100894523D02*
X74530476Y-100846904D01*
X74530476Y-100846904D02*
X74435238Y-100799285D01*
X74435238Y-100799285D02*
X74340000Y-100704047D01*
X74340000Y-100704047D02*
X74292380Y-100561190D01*
X74292380Y-100561190D02*
X74292380Y-100465952D01*
X74292380Y-100465952D02*
X74340000Y-100323095D01*
X74340000Y-100323095D02*
X74387619Y-100275476D01*
X74387619Y-100275476D02*
X74720952Y-100275476D01*
X74720952Y-100275476D02*
X74720952Y-100465952D01*
X74292380Y-99846904D02*
X75292380Y-99846904D01*
X75292380Y-99846904D02*
X75292380Y-99465952D01*
X75292380Y-99465952D02*
X75244761Y-99370714D01*
X75244761Y-99370714D02*
X75197142Y-99323095D01*
X75197142Y-99323095D02*
X75101904Y-99275476D01*
X75101904Y-99275476D02*
X74959047Y-99275476D01*
X74959047Y-99275476D02*
X74863809Y-99323095D01*
X74863809Y-99323095D02*
X74816190Y-99370714D01*
X74816190Y-99370714D02*
X74768571Y-99465952D01*
X74768571Y-99465952D02*
X74768571Y-99846904D01*
X75292380Y-98656428D02*
X75292380Y-98561190D01*
X75292380Y-98561190D02*
X75244761Y-98465952D01*
X75244761Y-98465952D02*
X75197142Y-98418333D01*
X75197142Y-98418333D02*
X75101904Y-98370714D01*
X75101904Y-98370714D02*
X74911428Y-98323095D01*
X74911428Y-98323095D02*
X74673333Y-98323095D01*
X74673333Y-98323095D02*
X74482857Y-98370714D01*
X74482857Y-98370714D02*
X74387619Y-98418333D01*
X74387619Y-98418333D02*
X74340000Y-98465952D01*
X74340000Y-98465952D02*
X74292380Y-98561190D01*
X74292380Y-98561190D02*
X74292380Y-98656428D01*
X74292380Y-98656428D02*
X74340000Y-98751666D01*
X74340000Y-98751666D02*
X74387619Y-98799285D01*
X74387619Y-98799285D02*
X74482857Y-98846904D01*
X74482857Y-98846904D02*
X74673333Y-98894523D01*
X74673333Y-98894523D02*
X74911428Y-98894523D01*
X74911428Y-98894523D02*
X75101904Y-98846904D01*
X75101904Y-98846904D02*
X75197142Y-98799285D01*
X75197142Y-98799285D02*
X75244761Y-98751666D01*
X75244761Y-98751666D02*
X75292380Y-98656428D01*
X74959047Y-96370714D02*
X74673333Y-97132618D01*
X74673333Y-97132618D02*
X74387619Y-96370714D01*
X74673333Y-95894523D02*
X74673333Y-95132619D01*
X74959047Y-94656428D02*
X74673333Y-93894524D01*
X74673333Y-93894524D02*
X74387619Y-94656428D01*
X74340000Y-92704047D02*
X74292380Y-92561190D01*
X74292380Y-92561190D02*
X74292380Y-92323095D01*
X74292380Y-92323095D02*
X74340000Y-92227857D01*
X74340000Y-92227857D02*
X74387619Y-92180238D01*
X74387619Y-92180238D02*
X74482857Y-92132619D01*
X74482857Y-92132619D02*
X74578095Y-92132619D01*
X74578095Y-92132619D02*
X74673333Y-92180238D01*
X74673333Y-92180238D02*
X74720952Y-92227857D01*
X74720952Y-92227857D02*
X74768571Y-92323095D01*
X74768571Y-92323095D02*
X74816190Y-92513571D01*
X74816190Y-92513571D02*
X74863809Y-92608809D01*
X74863809Y-92608809D02*
X74911428Y-92656428D01*
X74911428Y-92656428D02*
X75006666Y-92704047D01*
X75006666Y-92704047D02*
X75101904Y-92704047D01*
X75101904Y-92704047D02*
X75197142Y-92656428D01*
X75197142Y-92656428D02*
X75244761Y-92608809D01*
X75244761Y-92608809D02*
X75292380Y-92513571D01*
X75292380Y-92513571D02*
X75292380Y-92275476D01*
X75292380Y-92275476D02*
X75244761Y-92132619D01*
X74387619Y-91132619D02*
X74340000Y-91180238D01*
X74340000Y-91180238D02*
X74292380Y-91323095D01*
X74292380Y-91323095D02*
X74292380Y-91418333D01*
X74292380Y-91418333D02*
X74340000Y-91561190D01*
X74340000Y-91561190D02*
X74435238Y-91656428D01*
X74435238Y-91656428D02*
X74530476Y-91704047D01*
X74530476Y-91704047D02*
X74720952Y-91751666D01*
X74720952Y-91751666D02*
X74863809Y-91751666D01*
X74863809Y-91751666D02*
X75054285Y-91704047D01*
X75054285Y-91704047D02*
X75149523Y-91656428D01*
X75149523Y-91656428D02*
X75244761Y-91561190D01*
X75244761Y-91561190D02*
X75292380Y-91418333D01*
X75292380Y-91418333D02*
X75292380Y-91323095D01*
X75292380Y-91323095D02*
X75244761Y-91180238D01*
X75244761Y-91180238D02*
X75197142Y-91132619D01*
X73624761Y-100323095D02*
X73672380Y-100418333D01*
X73672380Y-100418333D02*
X73672380Y-100561190D01*
X73672380Y-100561190D02*
X73624761Y-100704047D01*
X73624761Y-100704047D02*
X73529523Y-100799285D01*
X73529523Y-100799285D02*
X73434285Y-100846904D01*
X73434285Y-100846904D02*
X73243809Y-100894523D01*
X73243809Y-100894523D02*
X73100952Y-100894523D01*
X73100952Y-100894523D02*
X72910476Y-100846904D01*
X72910476Y-100846904D02*
X72815238Y-100799285D01*
X72815238Y-100799285D02*
X72720000Y-100704047D01*
X72720000Y-100704047D02*
X72672380Y-100561190D01*
X72672380Y-100561190D02*
X72672380Y-100465952D01*
X72672380Y-100465952D02*
X72720000Y-100323095D01*
X72720000Y-100323095D02*
X72767619Y-100275476D01*
X72767619Y-100275476D02*
X73100952Y-100275476D01*
X73100952Y-100275476D02*
X73100952Y-100465952D01*
X72672380Y-99846904D02*
X73672380Y-99846904D01*
X73672380Y-99846904D02*
X73672380Y-99465952D01*
X73672380Y-99465952D02*
X73624761Y-99370714D01*
X73624761Y-99370714D02*
X73577142Y-99323095D01*
X73577142Y-99323095D02*
X73481904Y-99275476D01*
X73481904Y-99275476D02*
X73339047Y-99275476D01*
X73339047Y-99275476D02*
X73243809Y-99323095D01*
X73243809Y-99323095D02*
X73196190Y-99370714D01*
X73196190Y-99370714D02*
X73148571Y-99465952D01*
X73148571Y-99465952D02*
X73148571Y-99846904D01*
X72672380Y-98323095D02*
X72672380Y-98894523D01*
X72672380Y-98608809D02*
X73672380Y-98608809D01*
X73672380Y-98608809D02*
X73529523Y-98704047D01*
X73529523Y-98704047D02*
X73434285Y-98799285D01*
X73434285Y-98799285D02*
X73386666Y-98894523D01*
X73339047Y-96370714D02*
X73053333Y-97132618D01*
X73053333Y-97132618D02*
X72767619Y-96370714D01*
X73053333Y-95894523D02*
X73053333Y-95132619D01*
X73339047Y-94656428D02*
X73053333Y-93894524D01*
X73053333Y-93894524D02*
X72767619Y-94656428D01*
X72720000Y-92704047D02*
X72672380Y-92561190D01*
X72672380Y-92561190D02*
X72672380Y-92323095D01*
X72672380Y-92323095D02*
X72720000Y-92227857D01*
X72720000Y-92227857D02*
X72767619Y-92180238D01*
X72767619Y-92180238D02*
X72862857Y-92132619D01*
X72862857Y-92132619D02*
X72958095Y-92132619D01*
X72958095Y-92132619D02*
X73053333Y-92180238D01*
X73053333Y-92180238D02*
X73100952Y-92227857D01*
X73100952Y-92227857D02*
X73148571Y-92323095D01*
X73148571Y-92323095D02*
X73196190Y-92513571D01*
X73196190Y-92513571D02*
X73243809Y-92608809D01*
X73243809Y-92608809D02*
X73291428Y-92656428D01*
X73291428Y-92656428D02*
X73386666Y-92704047D01*
X73386666Y-92704047D02*
X73481904Y-92704047D01*
X73481904Y-92704047D02*
X73577142Y-92656428D01*
X73577142Y-92656428D02*
X73624761Y-92608809D01*
X73624761Y-92608809D02*
X73672380Y-92513571D01*
X73672380Y-92513571D02*
X73672380Y-92275476D01*
X73672380Y-92275476D02*
X73624761Y-92132619D01*
X72672380Y-91704047D02*
X73672380Y-91704047D01*
X72004761Y-100323095D02*
X72052380Y-100418333D01*
X72052380Y-100418333D02*
X72052380Y-100561190D01*
X72052380Y-100561190D02*
X72004761Y-100704047D01*
X72004761Y-100704047D02*
X71909523Y-100799285D01*
X71909523Y-100799285D02*
X71814285Y-100846904D01*
X71814285Y-100846904D02*
X71623809Y-100894523D01*
X71623809Y-100894523D02*
X71480952Y-100894523D01*
X71480952Y-100894523D02*
X71290476Y-100846904D01*
X71290476Y-100846904D02*
X71195238Y-100799285D01*
X71195238Y-100799285D02*
X71100000Y-100704047D01*
X71100000Y-100704047D02*
X71052380Y-100561190D01*
X71052380Y-100561190D02*
X71052380Y-100465952D01*
X71052380Y-100465952D02*
X71100000Y-100323095D01*
X71100000Y-100323095D02*
X71147619Y-100275476D01*
X71147619Y-100275476D02*
X71480952Y-100275476D01*
X71480952Y-100275476D02*
X71480952Y-100465952D01*
X71052380Y-99846904D02*
X72052380Y-99846904D01*
X72052380Y-99846904D02*
X72052380Y-99465952D01*
X72052380Y-99465952D02*
X72004761Y-99370714D01*
X72004761Y-99370714D02*
X71957142Y-99323095D01*
X71957142Y-99323095D02*
X71861904Y-99275476D01*
X71861904Y-99275476D02*
X71719047Y-99275476D01*
X71719047Y-99275476D02*
X71623809Y-99323095D01*
X71623809Y-99323095D02*
X71576190Y-99370714D01*
X71576190Y-99370714D02*
X71528571Y-99465952D01*
X71528571Y-99465952D02*
X71528571Y-99846904D01*
X71957142Y-98894523D02*
X72004761Y-98846904D01*
X72004761Y-98846904D02*
X72052380Y-98751666D01*
X72052380Y-98751666D02*
X72052380Y-98513571D01*
X72052380Y-98513571D02*
X72004761Y-98418333D01*
X72004761Y-98418333D02*
X71957142Y-98370714D01*
X71957142Y-98370714D02*
X71861904Y-98323095D01*
X71861904Y-98323095D02*
X71766666Y-98323095D01*
X71766666Y-98323095D02*
X71623809Y-98370714D01*
X71623809Y-98370714D02*
X71052380Y-98942142D01*
X71052380Y-98942142D02*
X71052380Y-98323095D01*
X71719047Y-96370714D02*
X71433333Y-97132618D01*
X71433333Y-97132618D02*
X71147619Y-96370714D01*
X71433333Y-95894523D02*
X71433333Y-95132619D01*
X71719047Y-94656428D02*
X71433333Y-93894524D01*
X71433333Y-93894524D02*
X71147619Y-94656428D01*
X71100000Y-92704047D02*
X71052380Y-92561190D01*
X71052380Y-92561190D02*
X71052380Y-92323095D01*
X71052380Y-92323095D02*
X71100000Y-92227857D01*
X71100000Y-92227857D02*
X71147619Y-92180238D01*
X71147619Y-92180238D02*
X71242857Y-92132619D01*
X71242857Y-92132619D02*
X71338095Y-92132619D01*
X71338095Y-92132619D02*
X71433333Y-92180238D01*
X71433333Y-92180238D02*
X71480952Y-92227857D01*
X71480952Y-92227857D02*
X71528571Y-92323095D01*
X71528571Y-92323095D02*
X71576190Y-92513571D01*
X71576190Y-92513571D02*
X71623809Y-92608809D01*
X71623809Y-92608809D02*
X71671428Y-92656428D01*
X71671428Y-92656428D02*
X71766666Y-92704047D01*
X71766666Y-92704047D02*
X71861904Y-92704047D01*
X71861904Y-92704047D02*
X71957142Y-92656428D01*
X71957142Y-92656428D02*
X72004761Y-92608809D01*
X72004761Y-92608809D02*
X72052380Y-92513571D01*
X72052380Y-92513571D02*
X72052380Y-92275476D01*
X72052380Y-92275476D02*
X72004761Y-92132619D01*
X72052380Y-91513571D02*
X72052380Y-91323095D01*
X72052380Y-91323095D02*
X72004761Y-91227857D01*
X72004761Y-91227857D02*
X71909523Y-91132619D01*
X71909523Y-91132619D02*
X71719047Y-91085000D01*
X71719047Y-91085000D02*
X71385714Y-91085000D01*
X71385714Y-91085000D02*
X71195238Y-91132619D01*
X71195238Y-91132619D02*
X71100000Y-91227857D01*
X71100000Y-91227857D02*
X71052380Y-91323095D01*
X71052380Y-91323095D02*
X71052380Y-91513571D01*
X71052380Y-91513571D02*
X71100000Y-91608809D01*
X71100000Y-91608809D02*
X71195238Y-91704047D01*
X71195238Y-91704047D02*
X71385714Y-91751666D01*
X71385714Y-91751666D02*
X71719047Y-91751666D01*
X71719047Y-91751666D02*
X71909523Y-91704047D01*
X71909523Y-91704047D02*
X72004761Y-91608809D01*
X72004761Y-91608809D02*
X72052380Y-91513571D01*
X70384761Y-100323095D02*
X70432380Y-100418333D01*
X70432380Y-100418333D02*
X70432380Y-100561190D01*
X70432380Y-100561190D02*
X70384761Y-100704047D01*
X70384761Y-100704047D02*
X70289523Y-100799285D01*
X70289523Y-100799285D02*
X70194285Y-100846904D01*
X70194285Y-100846904D02*
X70003809Y-100894523D01*
X70003809Y-100894523D02*
X69860952Y-100894523D01*
X69860952Y-100894523D02*
X69670476Y-100846904D01*
X69670476Y-100846904D02*
X69575238Y-100799285D01*
X69575238Y-100799285D02*
X69480000Y-100704047D01*
X69480000Y-100704047D02*
X69432380Y-100561190D01*
X69432380Y-100561190D02*
X69432380Y-100465952D01*
X69432380Y-100465952D02*
X69480000Y-100323095D01*
X69480000Y-100323095D02*
X69527619Y-100275476D01*
X69527619Y-100275476D02*
X69860952Y-100275476D01*
X69860952Y-100275476D02*
X69860952Y-100465952D01*
X69432380Y-99846904D02*
X70432380Y-99846904D01*
X70432380Y-99846904D02*
X70432380Y-99465952D01*
X70432380Y-99465952D02*
X70384761Y-99370714D01*
X70384761Y-99370714D02*
X70337142Y-99323095D01*
X70337142Y-99323095D02*
X70241904Y-99275476D01*
X70241904Y-99275476D02*
X70099047Y-99275476D01*
X70099047Y-99275476D02*
X70003809Y-99323095D01*
X70003809Y-99323095D02*
X69956190Y-99370714D01*
X69956190Y-99370714D02*
X69908571Y-99465952D01*
X69908571Y-99465952D02*
X69908571Y-99846904D01*
X70432380Y-98942142D02*
X70432380Y-98323095D01*
X70432380Y-98323095D02*
X70051428Y-98656428D01*
X70051428Y-98656428D02*
X70051428Y-98513571D01*
X70051428Y-98513571D02*
X70003809Y-98418333D01*
X70003809Y-98418333D02*
X69956190Y-98370714D01*
X69956190Y-98370714D02*
X69860952Y-98323095D01*
X69860952Y-98323095D02*
X69622857Y-98323095D01*
X69622857Y-98323095D02*
X69527619Y-98370714D01*
X69527619Y-98370714D02*
X69480000Y-98418333D01*
X69480000Y-98418333D02*
X69432380Y-98513571D01*
X69432380Y-98513571D02*
X69432380Y-98799285D01*
X69432380Y-98799285D02*
X69480000Y-98894523D01*
X69480000Y-98894523D02*
X69527619Y-98942142D01*
X70099047Y-96370714D02*
X69813333Y-97132618D01*
X69813333Y-97132618D02*
X69527619Y-96370714D01*
X69813333Y-95894523D02*
X69813333Y-95132619D01*
X70099047Y-94656428D02*
X69813333Y-93894524D01*
X69813333Y-93894524D02*
X69527619Y-94656428D01*
X69480000Y-92704047D02*
X69432380Y-92561190D01*
X69432380Y-92561190D02*
X69432380Y-92323095D01*
X69432380Y-92323095D02*
X69480000Y-92227857D01*
X69480000Y-92227857D02*
X69527619Y-92180238D01*
X69527619Y-92180238D02*
X69622857Y-92132619D01*
X69622857Y-92132619D02*
X69718095Y-92132619D01*
X69718095Y-92132619D02*
X69813333Y-92180238D01*
X69813333Y-92180238D02*
X69860952Y-92227857D01*
X69860952Y-92227857D02*
X69908571Y-92323095D01*
X69908571Y-92323095D02*
X69956190Y-92513571D01*
X69956190Y-92513571D02*
X70003809Y-92608809D01*
X70003809Y-92608809D02*
X70051428Y-92656428D01*
X70051428Y-92656428D02*
X70146666Y-92704047D01*
X70146666Y-92704047D02*
X70241904Y-92704047D01*
X70241904Y-92704047D02*
X70337142Y-92656428D01*
X70337142Y-92656428D02*
X70384761Y-92608809D01*
X70384761Y-92608809D02*
X70432380Y-92513571D01*
X70432380Y-92513571D02*
X70432380Y-92275476D01*
X70432380Y-92275476D02*
X70384761Y-92132619D01*
X69432380Y-91704047D02*
X70432380Y-91704047D01*
X70432380Y-91704047D02*
X70432380Y-91465952D01*
X70432380Y-91465952D02*
X70384761Y-91323095D01*
X70384761Y-91323095D02*
X70289523Y-91227857D01*
X70289523Y-91227857D02*
X70194285Y-91180238D01*
X70194285Y-91180238D02*
X70003809Y-91132619D01*
X70003809Y-91132619D02*
X69860952Y-91132619D01*
X69860952Y-91132619D02*
X69670476Y-91180238D01*
X69670476Y-91180238D02*
X69575238Y-91227857D01*
X69575238Y-91227857D02*
X69480000Y-91323095D01*
X69480000Y-91323095D02*
X69432380Y-91465952D01*
X69432380Y-91465952D02*
X69432380Y-91704047D01*
D13*
X72262857Y-86067142D02*
X72120000Y-86138571D01*
X72120000Y-86138571D02*
X71905714Y-86138571D01*
X71905714Y-86138571D02*
X71691428Y-86067142D01*
X71691428Y-86067142D02*
X71548571Y-85924285D01*
X71548571Y-85924285D02*
X71477142Y-85781428D01*
X71477142Y-85781428D02*
X71405714Y-85495714D01*
X71405714Y-85495714D02*
X71405714Y-85281428D01*
X71405714Y-85281428D02*
X71477142Y-84995714D01*
X71477142Y-84995714D02*
X71548571Y-84852857D01*
X71548571Y-84852857D02*
X71691428Y-84710000D01*
X71691428Y-84710000D02*
X71905714Y-84638571D01*
X71905714Y-84638571D02*
X72048571Y-84638571D01*
X72048571Y-84638571D02*
X72262857Y-84710000D01*
X72262857Y-84710000D02*
X72334285Y-84781428D01*
X72334285Y-84781428D02*
X72334285Y-85281428D01*
X72334285Y-85281428D02*
X72048571Y-85281428D01*
X73477142Y-85424285D02*
X73691428Y-85352857D01*
X73691428Y-85352857D02*
X73762857Y-85281428D01*
X73762857Y-85281428D02*
X73834285Y-85138571D01*
X73834285Y-85138571D02*
X73834285Y-84924285D01*
X73834285Y-84924285D02*
X73762857Y-84781428D01*
X73762857Y-84781428D02*
X73691428Y-84710000D01*
X73691428Y-84710000D02*
X73548571Y-84638571D01*
X73548571Y-84638571D02*
X72977142Y-84638571D01*
X72977142Y-84638571D02*
X72977142Y-86138571D01*
X72977142Y-86138571D02*
X73477142Y-86138571D01*
X73477142Y-86138571D02*
X73620000Y-86067142D01*
X73620000Y-86067142D02*
X73691428Y-85995714D01*
X73691428Y-85995714D02*
X73762857Y-85852857D01*
X73762857Y-85852857D02*
X73762857Y-85710000D01*
X73762857Y-85710000D02*
X73691428Y-85567142D01*
X73691428Y-85567142D02*
X73620000Y-85495714D01*
X73620000Y-85495714D02*
X73477142Y-85424285D01*
X73477142Y-85424285D02*
X72977142Y-85424285D01*
X74334285Y-86138571D02*
X75334285Y-86138571D01*
X75334285Y-86138571D02*
X74334285Y-84638571D01*
X74334285Y-84638571D02*
X75334285Y-84638571D01*
X75905713Y-85424285D02*
X76405713Y-85424285D01*
X76619999Y-84638571D02*
X75905713Y-84638571D01*
X75905713Y-84638571D02*
X75905713Y-86138571D01*
X75905713Y-86138571D02*
X76619999Y-86138571D01*
X78119999Y-84638571D02*
X77619999Y-85352857D01*
X77262856Y-84638571D02*
X77262856Y-86138571D01*
X77262856Y-86138571D02*
X77834285Y-86138571D01*
X77834285Y-86138571D02*
X77977142Y-86067142D01*
X77977142Y-86067142D02*
X78048571Y-85995714D01*
X78048571Y-85995714D02*
X78119999Y-85852857D01*
X78119999Y-85852857D02*
X78119999Y-85638571D01*
X78119999Y-85638571D02*
X78048571Y-85495714D01*
X78048571Y-85495714D02*
X77977142Y-85424285D01*
X77977142Y-85424285D02*
X77834285Y-85352857D01*
X77834285Y-85352857D02*
X77262856Y-85352857D01*
X79048571Y-86138571D02*
X79334285Y-86138571D01*
X79334285Y-86138571D02*
X79477142Y-86067142D01*
X79477142Y-86067142D02*
X79619999Y-85924285D01*
X79619999Y-85924285D02*
X79691428Y-85638571D01*
X79691428Y-85638571D02*
X79691428Y-85138571D01*
X79691428Y-85138571D02*
X79619999Y-84852857D01*
X79619999Y-84852857D02*
X79477142Y-84710000D01*
X79477142Y-84710000D02*
X79334285Y-84638571D01*
X79334285Y-84638571D02*
X79048571Y-84638571D01*
X79048571Y-84638571D02*
X78905714Y-84710000D01*
X78905714Y-84710000D02*
X78762856Y-84852857D01*
X78762856Y-84852857D02*
X78691428Y-85138571D01*
X78691428Y-85138571D02*
X78691428Y-85638571D01*
X78691428Y-85638571D02*
X78762856Y-85924285D01*
X78762856Y-85924285D02*
X78905714Y-86067142D01*
X78905714Y-86067142D02*
X79048571Y-86138571D01*
X81048571Y-84638571D02*
X80334285Y-84638571D01*
X80334285Y-84638571D02*
X80334285Y-86138571D01*
X81548571Y-84638571D02*
X81548571Y-86138571D01*
X82262857Y-84638571D02*
X82262857Y-86138571D01*
X82262857Y-86138571D02*
X83120000Y-84638571D01*
X83120000Y-84638571D02*
X83120000Y-86138571D01*
X83834286Y-84638571D02*
X83834286Y-86138571D01*
X84691429Y-84638571D02*
X84048572Y-85495714D01*
X84691429Y-86138571D02*
X83834286Y-85281428D01*
X86405715Y-85067142D02*
X87120001Y-85067142D01*
X86262858Y-84638571D02*
X86762858Y-86138571D01*
X86762858Y-86138571D02*
X87262858Y-84638571D01*
X87762857Y-84638571D02*
X87762857Y-86138571D01*
X87762857Y-86138571D02*
X88262857Y-85067142D01*
X88262857Y-85067142D02*
X88762857Y-86138571D01*
X88762857Y-86138571D02*
X88762857Y-84638571D01*
X90262858Y-84638571D02*
X89405715Y-84638571D01*
X89834286Y-84638571D02*
X89834286Y-86138571D01*
X89834286Y-86138571D02*
X89691429Y-85924285D01*
X89691429Y-85924285D02*
X89548572Y-85781428D01*
X89548572Y-85781428D02*
X89405715Y-85710000D01*
X91977143Y-85995714D02*
X92048571Y-86067142D01*
X92048571Y-86067142D02*
X92191429Y-86138571D01*
X92191429Y-86138571D02*
X92548571Y-86138571D01*
X92548571Y-86138571D02*
X92691429Y-86067142D01*
X92691429Y-86067142D02*
X92762857Y-85995714D01*
X92762857Y-85995714D02*
X92834286Y-85852857D01*
X92834286Y-85852857D02*
X92834286Y-85710000D01*
X92834286Y-85710000D02*
X92762857Y-85495714D01*
X92762857Y-85495714D02*
X91905714Y-84638571D01*
X91905714Y-84638571D02*
X92834286Y-84638571D01*
X93762857Y-86138571D02*
X93905714Y-86138571D01*
X93905714Y-86138571D02*
X94048571Y-86067142D01*
X94048571Y-86067142D02*
X94120000Y-85995714D01*
X94120000Y-85995714D02*
X94191428Y-85852857D01*
X94191428Y-85852857D02*
X94262857Y-85567142D01*
X94262857Y-85567142D02*
X94262857Y-85210000D01*
X94262857Y-85210000D02*
X94191428Y-84924285D01*
X94191428Y-84924285D02*
X94120000Y-84781428D01*
X94120000Y-84781428D02*
X94048571Y-84710000D01*
X94048571Y-84710000D02*
X93905714Y-84638571D01*
X93905714Y-84638571D02*
X93762857Y-84638571D01*
X93762857Y-84638571D02*
X93620000Y-84710000D01*
X93620000Y-84710000D02*
X93548571Y-84781428D01*
X93548571Y-84781428D02*
X93477142Y-84924285D01*
X93477142Y-84924285D02*
X93405714Y-85210000D01*
X93405714Y-85210000D02*
X93405714Y-85567142D01*
X93405714Y-85567142D02*
X93477142Y-85852857D01*
X93477142Y-85852857D02*
X93548571Y-85995714D01*
X93548571Y-85995714D02*
X93620000Y-86067142D01*
X93620000Y-86067142D02*
X93762857Y-86138571D01*
X94834285Y-85995714D02*
X94905713Y-86067142D01*
X94905713Y-86067142D02*
X95048571Y-86138571D01*
X95048571Y-86138571D02*
X95405713Y-86138571D01*
X95405713Y-86138571D02*
X95548571Y-86067142D01*
X95548571Y-86067142D02*
X95619999Y-85995714D01*
X95619999Y-85995714D02*
X95691428Y-85852857D01*
X95691428Y-85852857D02*
X95691428Y-85710000D01*
X95691428Y-85710000D02*
X95619999Y-85495714D01*
X95619999Y-85495714D02*
X94762856Y-84638571D01*
X94762856Y-84638571D02*
X95691428Y-84638571D01*
X96977142Y-85638571D02*
X96977142Y-84638571D01*
X96619999Y-86210000D02*
X96262856Y-85138571D01*
X96262856Y-85138571D02*
X97191427Y-85138571D01*
D14*
X91690000Y-89220000D02*
X75795000Y-89220000D01*
X75795000Y-89220000D02*
X75795000Y-102550000D01*
X91690000Y-102550000D02*
X91690000Y-89220000D01*
X75795000Y-102550000D02*
X91690000Y-102550000D01*
D15*
X96300000Y-89010000D02*
X101700000Y-89010000D01*
X96300000Y-102810000D02*
X96300000Y-89010000D01*
X100000000Y-90785000D02*
X101630000Y-90785000D01*
X100000000Y-92585000D02*
X100000000Y-90785000D01*
X100000000Y-95085000D02*
X100000000Y-94185000D01*
X100000000Y-97585000D02*
X100000000Y-96685000D01*
X100000000Y-100985000D02*
X100000000Y-99185000D01*
X101630000Y-100985000D02*
X100000000Y-100985000D01*
X101700000Y-102810000D02*
X96300000Y-102810000D01*
X104100000Y-89010000D02*
X105800000Y-89010000D01*
X104300000Y-90785000D02*
X106000000Y-90785000D01*
X105800000Y-102810000D02*
X104100000Y-102810000D01*
X106000000Y-100985000D02*
X104300000Y-100985000D01*
M02*
