G04 #@! TF.GenerationSoftware,KiCad,Pcbnew,7.0.2*
G04 #@! TF.CreationDate,2024-01-20T07:38:39+00:00*
G04 #@! TF.ProjectId,game-boy-zero-link-board,67616d65-2d62-46f7-992d-7a65726f2d6c,rev?*
G04 #@! TF.SameCoordinates,Original*
G04 #@! TF.FileFunction,Copper,L1,Top*
G04 #@! TF.FilePolarity,Positive*
%FSLAX46Y46*%
G04 Gerber Fmt 4.6, Leading zero omitted, Abs format (unit mm)*
G04 Created by KiCad (PCBNEW 7.0.2) date 2024-01-20 07:38:39*
%MOMM*%
%LPD*%
G01*
G04 APERTURE LIST*
G04 #@! TA.AperFunction,ConnectorPad*
%ADD10R,8.000000X2.000000*%
G04 #@! TD*
G04 #@! TA.AperFunction,ConnectorPad*
%ADD11R,5.000000X1.000000*%
G04 #@! TD*
G04 #@! TA.AperFunction,ComponentPad*
%ADD12C,1.700000*%
G04 #@! TD*
G04 #@! TA.AperFunction,SMDPad,CuDef*
%ADD13R,1.700000X3.500000*%
G04 #@! TD*
G04 #@! TA.AperFunction,ComponentPad*
%ADD14O,1.700000X1.700000*%
G04 #@! TD*
G04 #@! TA.AperFunction,SMDPad,CuDef*
%ADD15R,3.500000X1.700000*%
G04 #@! TD*
G04 #@! TA.AperFunction,ComponentPad*
%ADD16R,1.700000X1.700000*%
G04 #@! TD*
G04 #@! TA.AperFunction,ComponentPad*
%ADD17R,1.940000X1.400000*%
G04 #@! TD*
G04 #@! TA.AperFunction,ComponentPad*
%ADD18R,1.400000X1.400000*%
G04 #@! TD*
G04 #@! TA.AperFunction,ComponentPad*
%ADD19C,1.400000*%
G04 #@! TD*
G04 #@! TA.AperFunction,ComponentPad*
%ADD20O,1.940000X1.400000*%
G04 #@! TD*
G04 #@! TA.AperFunction,ComponentPad*
%ADD21O,3.000000X2.000000*%
G04 #@! TD*
G04 #@! TA.AperFunction,ComponentPad*
%ADD22O,2.200000X1.400000*%
G04 #@! TD*
G04 #@! TA.AperFunction,ViaPad*
%ADD23C,0.800000*%
G04 #@! TD*
G04 #@! TA.AperFunction,Conductor*
%ADD24C,0.200000*%
G04 #@! TD*
G04 #@! TA.AperFunction,Conductor*
%ADD25C,0.250000*%
G04 #@! TD*
G04 #@! TA.AperFunction,Conductor*
%ADD26C,0.500000*%
G04 #@! TD*
G04 APERTURE END LIST*
D10*
X111260000Y-105385000D03*
X111260000Y-102785000D03*
X111260000Y-100285000D03*
D11*
X109710000Y-89785000D03*
X109710000Y-87785000D03*
X109710000Y-85785000D03*
D12*
X72390000Y-88265000D03*
D13*
X72390000Y-87365000D03*
D14*
X74930000Y-88265000D03*
D13*
X74930000Y-87365000D03*
D12*
X77470000Y-88265000D03*
D13*
X77470000Y-87365000D03*
D14*
X80010000Y-88265000D03*
D13*
X80010000Y-87365000D03*
D14*
X82550000Y-88265000D03*
D13*
X82550000Y-87365000D03*
D14*
X85090000Y-88265000D03*
D13*
X85090000Y-87365000D03*
D14*
X87630000Y-88265000D03*
D13*
X87630000Y-87365000D03*
D12*
X90170000Y-88265000D03*
D13*
X90170000Y-87365000D03*
D14*
X92710000Y-88265000D03*
D13*
X92710000Y-87365000D03*
D14*
X92710000Y-90805000D03*
D15*
X93610000Y-90805000D03*
D14*
X92710000Y-93345000D03*
D15*
X93610000Y-93345000D03*
D14*
X92710000Y-95885000D03*
D15*
X93610000Y-95885000D03*
D12*
X92710000Y-98425000D03*
D15*
X93610000Y-98425000D03*
D14*
X92710000Y-100965000D03*
D15*
X93610000Y-100965000D03*
D14*
X92710000Y-103505000D03*
D13*
X92710000Y-104405000D03*
D14*
X90170000Y-103505000D03*
D13*
X90170000Y-104405000D03*
D14*
X87630000Y-103505000D03*
D13*
X87630000Y-104405000D03*
D12*
X85090000Y-103505000D03*
D13*
X85090000Y-104405000D03*
D14*
X82550000Y-103505000D03*
D13*
X82550000Y-104405000D03*
D14*
X80010000Y-103505000D03*
D13*
X80010000Y-104405000D03*
D14*
X77470000Y-103505000D03*
D13*
X77470000Y-104405000D03*
D16*
X74930000Y-103505000D03*
D13*
X74930000Y-104405000D03*
D12*
X72390000Y-103505000D03*
D13*
X72390000Y-104405000D03*
D16*
X77470000Y-90805000D03*
D12*
X80010000Y-90805000D03*
X82550000Y-90805000D03*
X85090000Y-90805000D03*
X87630000Y-90805000D03*
X90170000Y-90805000D03*
X77470000Y-100965000D03*
X80010000Y-100965000D03*
X82550000Y-100965000D03*
X85090000Y-100965000D03*
X87630000Y-100965000D03*
X90170000Y-100965000D03*
D17*
X97630000Y-98405000D03*
D18*
X101600000Y-97885000D03*
D19*
X99900000Y-98385000D03*
X103600000Y-97885000D03*
D20*
X97630000Y-95885000D03*
D19*
X101600000Y-95885000D03*
X99900000Y-95885000D03*
X103600000Y-95885000D03*
D20*
X97630000Y-93365000D03*
D19*
X101600000Y-93885000D03*
X99900000Y-93385000D03*
X103600000Y-93885000D03*
D21*
X102900000Y-90010000D03*
X102900000Y-101810000D03*
D22*
X103200000Y-91385000D03*
X103200000Y-100385000D03*
D23*
X105349500Y-99949000D03*
X105299500Y-91821000D03*
X98044000Y-101727000D03*
X97028000Y-100711000D03*
X106172000Y-100965000D03*
D24*
X98650000Y-97385000D02*
X97630000Y-98405000D01*
X101600000Y-97885000D02*
X101100000Y-97385000D01*
X101100000Y-97385000D02*
X98650000Y-97385000D01*
X105349500Y-99949000D02*
X105299500Y-99899000D01*
X105299500Y-99899000D02*
X105299500Y-91821000D01*
X97028000Y-99695000D02*
X96266000Y-100457000D01*
X104600000Y-91361000D02*
X104600000Y-94299214D01*
X100600000Y-99085000D02*
X99900000Y-98385000D01*
X103470000Y-105375000D02*
X104140000Y-105375000D01*
X103185786Y-94885000D02*
X102600000Y-95470786D01*
X103600000Y-97885000D02*
X102400000Y-99085000D01*
X89013478Y-102348478D02*
X96266000Y-102348478D01*
X102400000Y-99085000D02*
X100600000Y-99085000D01*
X104014214Y-94885000D02*
X103185786Y-94885000D01*
X102600000Y-96885000D02*
X103600000Y-97885000D01*
X108915000Y-89775000D02*
X106186000Y-89775000D01*
D25*
X104140000Y-105375000D02*
X110465000Y-105375000D01*
D24*
X106186000Y-89775000D02*
X104600000Y-91361000D01*
X96266000Y-100457000D02*
X96266000Y-102348478D01*
X96266000Y-102348478D02*
X97675528Y-102348478D01*
X97675528Y-102348478D02*
X97754050Y-102427000D01*
X87630000Y-100965000D02*
X89013478Y-102348478D01*
X104600000Y-94299214D02*
X104014214Y-94885000D01*
X99900000Y-98385000D02*
X98590000Y-99695000D01*
X97754050Y-102427000D02*
X100522000Y-102427000D01*
X100522000Y-102427000D02*
X103470000Y-105375000D01*
X102600000Y-95470786D02*
X102600000Y-96885000D01*
X98590000Y-99695000D02*
X97028000Y-99695000D01*
X108905000Y-87785000D02*
X107470000Y-87785000D01*
X100330000Y-89634261D02*
X100330000Y-90297000D01*
D25*
X103632000Y-95885000D02*
X104775000Y-97028000D01*
D24*
X96790000Y-96885000D02*
X98900000Y-96885000D01*
X100330000Y-90297000D02*
X101800000Y-91767000D01*
X101800000Y-91767000D02*
X101800000Y-91799214D01*
X102600000Y-94299214D02*
X102014214Y-94885000D01*
X102418000Y-92385000D02*
X102600000Y-92567000D01*
D25*
X104775000Y-97028000D02*
X104775000Y-99187000D01*
D24*
X102014214Y-94885000D02*
X100900000Y-94885000D01*
X103223261Y-86741000D02*
X100330000Y-89634261D01*
X102385786Y-92385000D02*
X102418000Y-92385000D01*
X106426000Y-86741000D02*
X103223261Y-86741000D01*
X100900000Y-94885000D02*
X99900000Y-95885000D01*
X90170000Y-97790000D02*
X90805000Y-97155000D01*
X98900000Y-96885000D02*
X99900000Y-95885000D01*
D25*
X104624500Y-100814500D02*
X106585000Y-102775000D01*
D24*
X107470000Y-87785000D02*
X106426000Y-86741000D01*
X102600000Y-92567000D02*
X102600000Y-94299214D01*
X108915000Y-87775000D02*
X108905000Y-87785000D01*
X96520000Y-97155000D02*
X96790000Y-96885000D01*
X101800000Y-91799214D02*
X102385786Y-92385000D01*
D25*
X103600000Y-95885000D02*
X103632000Y-95885000D01*
D24*
X90805000Y-97155000D02*
X96520000Y-97155000D01*
X90170000Y-100965000D02*
X90170000Y-97790000D01*
D25*
X104775000Y-99187000D02*
X104624500Y-99337500D01*
X106585000Y-102775000D02*
X110465000Y-102775000D01*
X104624500Y-99337500D02*
X104624500Y-100814500D01*
D24*
X98650000Y-94385000D02*
X101100000Y-94385000D01*
X97630000Y-93365000D02*
X98650000Y-94385000D01*
D25*
X75565000Y-97790000D02*
X82550000Y-90805000D01*
X77470000Y-103505000D02*
X75565000Y-101600000D01*
X75565000Y-101600000D02*
X75565000Y-97790000D01*
X77470000Y-90805000D02*
X74930000Y-90805000D01*
X74930000Y-90805000D02*
X72390000Y-88265000D01*
D24*
X103200000Y-91385000D02*
X103200000Y-90310000D01*
X106852000Y-100285000D02*
X106172000Y-100965000D01*
D26*
X109710000Y-85785000D02*
X105470000Y-85785000D01*
X111260000Y-100285000D02*
X106852000Y-100285000D01*
D24*
X103200000Y-90310000D02*
X102900000Y-90010000D01*
X103200000Y-101510000D02*
X102900000Y-101810000D01*
X103600000Y-91785000D02*
X103200000Y-91385000D01*
X103200000Y-100385000D02*
X103200000Y-101510000D01*
X103600000Y-93885000D02*
X103600000Y-91785000D01*
D25*
X77470000Y-88265000D02*
X77660000Y-88265000D01*
X77660000Y-88265000D02*
X79025000Y-89630000D01*
X79025000Y-89630000D02*
X86455000Y-89630000D01*
X86455000Y-89630000D02*
X87630000Y-90805000D01*
G04 #@! TA.AperFunction,Conductor*
G36*
X105313058Y-82886561D02*
G01*
X105348134Y-82891178D01*
X105392214Y-82896982D01*
X105423479Y-82905359D01*
X105489665Y-82932774D01*
X105517699Y-82948960D01*
X105574537Y-82992574D01*
X105597425Y-83015462D01*
X105641039Y-83072300D01*
X105657225Y-83100335D01*
X105684639Y-83166519D01*
X105693017Y-83197786D01*
X105703438Y-83276941D01*
X105704499Y-83293126D01*
X105704499Y-84487699D01*
X105704500Y-84487704D01*
X105704500Y-84606959D01*
X105712190Y-84633152D01*
X105715947Y-84650425D01*
X105719835Y-84677456D01*
X105731173Y-84702282D01*
X105737354Y-84718856D01*
X105745045Y-84745048D01*
X105745046Y-84745050D01*
X105745047Y-84745052D01*
X105759810Y-84768024D01*
X105768283Y-84783542D01*
X105779622Y-84808371D01*
X105797495Y-84828997D01*
X105808097Y-84843161D01*
X105822855Y-84866126D01*
X105843487Y-84884004D01*
X105855992Y-84896509D01*
X105873872Y-84917142D01*
X105896836Y-84931900D01*
X105911002Y-84942504D01*
X105931625Y-84960375D01*
X105931626Y-84960375D01*
X105931627Y-84960376D01*
X105956455Y-84971714D01*
X105971977Y-84980191D01*
X105994944Y-84994951D01*
X106021135Y-85002641D01*
X106037713Y-85008825D01*
X106058191Y-85018176D01*
X106062543Y-85020164D01*
X106089570Y-85024050D01*
X106106849Y-85027809D01*
X106133039Y-85035499D01*
X106593636Y-85035499D01*
X106660675Y-85055184D01*
X106706430Y-85107988D01*
X106716925Y-85172755D01*
X106710354Y-85233869D01*
X106710000Y-85240481D01*
X106709999Y-85534999D01*
X106710000Y-85535000D01*
X107170391Y-85535000D01*
X107168118Y-86035000D01*
X106710000Y-86035000D01*
X106708466Y-86036533D01*
X106690315Y-86098351D01*
X106637511Y-86144106D01*
X106569815Y-86154251D01*
X106465361Y-86140500D01*
X106426000Y-86135317D01*
X106398163Y-86138982D01*
X106394697Y-86139439D01*
X106378513Y-86140500D01*
X103270748Y-86140500D01*
X103254563Y-86139439D01*
X103250637Y-86138922D01*
X103223260Y-86135317D01*
X103188002Y-86139959D01*
X103183900Y-86140500D01*
X103125199Y-86148228D01*
X103066498Y-86155956D01*
X102920422Y-86216462D01*
X102870243Y-86254965D01*
X102794979Y-86312718D01*
X102794977Y-86312719D01*
X102794976Y-86312721D01*
X102775751Y-86337774D01*
X102765059Y-86349965D01*
X99938965Y-89176059D01*
X99926773Y-89186752D01*
X99901718Y-89205978D01*
X99877550Y-89237476D01*
X99805462Y-89331422D01*
X99744956Y-89477498D01*
X99724317Y-89634260D01*
X99728439Y-89665562D01*
X99729500Y-89681748D01*
X99729500Y-90249511D01*
X99728439Y-90265696D01*
X99724317Y-90296999D01*
X99736889Y-90392483D01*
X99744955Y-90453760D01*
X99805464Y-90599841D01*
X99901716Y-90725281D01*
X99926768Y-90744503D01*
X99938964Y-90755199D01*
X101250699Y-92066934D01*
X101265517Y-92089110D01*
X101265526Y-92089104D01*
X101371716Y-92227495D01*
X101396768Y-92246717D01*
X101408964Y-92257413D01*
X101624370Y-92472819D01*
X101657855Y-92534142D01*
X101652871Y-92603834D01*
X101610999Y-92659767D01*
X101545535Y-92684184D01*
X101536689Y-92684500D01*
X101488757Y-92684500D01*
X101379408Y-92704941D01*
X101270058Y-92725382D01*
X101075381Y-92800800D01*
X101005758Y-92806662D01*
X100944018Y-92773952D01*
X100932919Y-92758715D01*
X100931557Y-92759745D01*
X100908860Y-92729690D01*
X100383076Y-93255474D01*
X100359493Y-93175156D01*
X100281761Y-93054202D01*
X100173100Y-92960048D01*
X100042315Y-92900320D01*
X100032533Y-92898913D01*
X100553327Y-92378119D01*
X100437179Y-92306202D01*
X100229801Y-92225864D01*
X100011194Y-92185000D01*
X99788806Y-92185000D01*
X99570198Y-92225864D01*
X99362821Y-92306202D01*
X99246671Y-92378119D01*
X99767466Y-92898913D01*
X99757685Y-92900320D01*
X99626900Y-92960048D01*
X99518239Y-93054202D01*
X99440507Y-93175156D01*
X99416923Y-93255476D01*
X98973487Y-92812040D01*
X98955741Y-92789636D01*
X98937233Y-92759745D01*
X98862124Y-92638438D01*
X98797000Y-92567000D01*
X98712237Y-92474019D01*
X98534688Y-92339941D01*
X98335526Y-92240769D01*
X98121537Y-92179885D01*
X97958363Y-92164765D01*
X97958362Y-92164764D01*
X97955503Y-92164500D01*
X97304497Y-92164500D01*
X97301638Y-92164764D01*
X97301636Y-92164765D01*
X97138462Y-92179885D01*
X96924473Y-92240769D01*
X96725311Y-92339941D01*
X96547762Y-92474019D01*
X96397875Y-92638437D01*
X96280754Y-92827595D01*
X96243842Y-92922876D01*
X96200382Y-93035060D01*
X96159500Y-93253757D01*
X96159500Y-93476243D01*
X96200382Y-93694940D01*
X96235078Y-93784500D01*
X96280754Y-93902404D01*
X96397875Y-94091562D01*
X96547762Y-94255980D01*
X96725311Y-94390058D01*
X96924473Y-94489230D01*
X96982479Y-94505734D01*
X97041573Y-94543013D01*
X97071130Y-94606323D01*
X97061768Y-94675562D01*
X97016458Y-94728749D01*
X96982479Y-94744266D01*
X96924473Y-94760769D01*
X96725311Y-94859941D01*
X96547762Y-94994019D01*
X96397875Y-95158437D01*
X96280754Y-95347595D01*
X96200382Y-95555060D01*
X96159500Y-95773757D01*
X96159500Y-95996243D01*
X96200382Y-96214940D01*
X96200383Y-96214944D01*
X96266537Y-96385706D01*
X96272400Y-96455329D01*
X96239690Y-96517069D01*
X96178794Y-96551324D01*
X96150911Y-96554500D01*
X95984500Y-96554500D01*
X95917461Y-96534815D01*
X95871706Y-96482011D01*
X95860500Y-96430500D01*
X95860499Y-94990439D01*
X95860499Y-94987128D01*
X95854091Y-94927517D01*
X95803796Y-94792669D01*
X95726421Y-94689309D01*
X95702005Y-94623846D01*
X95716857Y-94555573D01*
X95726422Y-94540689D01*
X95764945Y-94489229D01*
X95803796Y-94437331D01*
X95854091Y-94302483D01*
X95860500Y-94242873D01*
X95860499Y-92447128D01*
X95854091Y-92387517D01*
X95803796Y-92252669D01*
X95726421Y-92149310D01*
X95702005Y-92083846D01*
X95716857Y-92015573D01*
X95726422Y-92000689D01*
X95742958Y-91978600D01*
X95803796Y-91897331D01*
X95854091Y-91762483D01*
X95860500Y-91702873D01*
X95860499Y-89907128D01*
X95854091Y-89847517D01*
X95803796Y-89712669D01*
X95717546Y-89597454D01*
X95602331Y-89511204D01*
X95467483Y-89460909D01*
X95407873Y-89454500D01*
X95404551Y-89454500D01*
X94146148Y-89454500D01*
X94079109Y-89434815D01*
X94033354Y-89382011D01*
X94023410Y-89312853D01*
X94029966Y-89287167D01*
X94054090Y-89222485D01*
X94054089Y-89222485D01*
X94054091Y-89222483D01*
X94060500Y-89162873D01*
X94060499Y-88329382D01*
X94060971Y-88318573D01*
X94062177Y-88304797D01*
X94065659Y-88265000D01*
X94060971Y-88211421D01*
X94060499Y-88200614D01*
X94060499Y-85885000D01*
X98194340Y-85885000D01*
X98214936Y-86120407D01*
X98266466Y-86312718D01*
X98276097Y-86348663D01*
X98375965Y-86562829D01*
X98511505Y-86756401D01*
X98678599Y-86923495D01*
X98872171Y-87059035D01*
X99086337Y-87158903D01*
X99314592Y-87220063D01*
X99491034Y-87235500D01*
X99493742Y-87235500D01*
X99606258Y-87235500D01*
X99608966Y-87235500D01*
X99785408Y-87220063D01*
X100013663Y-87158903D01*
X100227829Y-87059035D01*
X100421401Y-86923495D01*
X100588495Y-86756401D01*
X100724035Y-86562830D01*
X100823903Y-86348663D01*
X100885063Y-86120408D01*
X100905659Y-85885000D01*
X100885063Y-85649592D01*
X100823903Y-85421337D01*
X100724035Y-85207171D01*
X100588495Y-85013599D01*
X100421401Y-84846505D01*
X100227829Y-84710965D01*
X100013663Y-84611097D01*
X99785407Y-84549936D01*
X99611667Y-84534736D01*
X99611659Y-84534735D01*
X99608966Y-84534500D01*
X99491034Y-84534500D01*
X99488341Y-84534735D01*
X99488332Y-84534736D01*
X99314592Y-84549936D01*
X99086336Y-84611097D01*
X98872170Y-84710965D01*
X98678598Y-84846505D01*
X98511508Y-85013595D01*
X98511505Y-85013598D01*
X98511505Y-85013599D01*
X98440606Y-85114854D01*
X98375964Y-85207172D01*
X98276097Y-85421337D01*
X98214936Y-85649592D01*
X98194340Y-85885000D01*
X94060499Y-85885000D01*
X94060499Y-85570439D01*
X94060499Y-85567128D01*
X94054091Y-85507517D01*
X94003796Y-85372669D01*
X93917546Y-85257454D01*
X93802331Y-85171204D01*
X93667483Y-85120909D01*
X93607873Y-85114500D01*
X93604550Y-85114500D01*
X91815439Y-85114500D01*
X91815420Y-85114500D01*
X91812128Y-85114501D01*
X91808848Y-85114853D01*
X91808840Y-85114854D01*
X91752515Y-85120909D01*
X91617667Y-85171204D01*
X91514310Y-85248577D01*
X91448846Y-85272994D01*
X91380573Y-85258142D01*
X91365690Y-85248577D01*
X91262333Y-85171205D01*
X91262331Y-85171204D01*
X91127483Y-85120909D01*
X91067873Y-85114500D01*
X91064550Y-85114500D01*
X89275439Y-85114500D01*
X89275420Y-85114500D01*
X89272128Y-85114501D01*
X89268848Y-85114853D01*
X89268840Y-85114854D01*
X89212515Y-85120909D01*
X89077667Y-85171204D01*
X88974310Y-85248577D01*
X88908846Y-85272994D01*
X88840573Y-85258142D01*
X88825690Y-85248577D01*
X88722333Y-85171205D01*
X88722331Y-85171204D01*
X88587483Y-85120909D01*
X88527873Y-85114500D01*
X88524550Y-85114500D01*
X86735439Y-85114500D01*
X86735420Y-85114500D01*
X86732128Y-85114501D01*
X86728848Y-85114853D01*
X86728840Y-85114854D01*
X86672515Y-85120909D01*
X86537667Y-85171204D01*
X86434310Y-85248577D01*
X86368846Y-85272994D01*
X86300573Y-85258142D01*
X86285690Y-85248577D01*
X86182333Y-85171205D01*
X86182331Y-85171204D01*
X86047483Y-85120909D01*
X85987873Y-85114500D01*
X85984550Y-85114500D01*
X84195439Y-85114500D01*
X84195420Y-85114500D01*
X84192128Y-85114501D01*
X84188848Y-85114853D01*
X84188840Y-85114854D01*
X84132515Y-85120909D01*
X83997667Y-85171204D01*
X83894310Y-85248577D01*
X83828846Y-85272994D01*
X83760573Y-85258142D01*
X83745690Y-85248577D01*
X83642333Y-85171205D01*
X83642331Y-85171204D01*
X83507483Y-85120909D01*
X83447873Y-85114500D01*
X83444550Y-85114500D01*
X81655439Y-85114500D01*
X81655420Y-85114500D01*
X81652128Y-85114501D01*
X81648848Y-85114853D01*
X81648840Y-85114854D01*
X81592515Y-85120909D01*
X81457667Y-85171204D01*
X81354310Y-85248577D01*
X81288846Y-85272994D01*
X81220573Y-85258142D01*
X81205690Y-85248577D01*
X81102333Y-85171205D01*
X81102331Y-85171204D01*
X80967483Y-85120909D01*
X80907873Y-85114500D01*
X80904550Y-85114500D01*
X79115439Y-85114500D01*
X79115420Y-85114500D01*
X79112128Y-85114501D01*
X79108848Y-85114853D01*
X79108840Y-85114854D01*
X79052515Y-85120909D01*
X78917667Y-85171204D01*
X78814310Y-85248577D01*
X78748846Y-85272994D01*
X78680573Y-85258142D01*
X78665690Y-85248577D01*
X78562333Y-85171205D01*
X78562331Y-85171204D01*
X78427483Y-85120909D01*
X78367873Y-85114500D01*
X78364550Y-85114500D01*
X76575439Y-85114500D01*
X76575420Y-85114500D01*
X76572128Y-85114501D01*
X76568848Y-85114853D01*
X76568840Y-85114854D01*
X76512515Y-85120909D01*
X76377667Y-85171204D01*
X76274310Y-85248577D01*
X76208846Y-85272994D01*
X76140573Y-85258142D01*
X76125690Y-85248577D01*
X76022333Y-85171205D01*
X76022331Y-85171204D01*
X75887483Y-85120909D01*
X75827873Y-85114500D01*
X75824550Y-85114500D01*
X74035439Y-85114500D01*
X74035420Y-85114500D01*
X74032128Y-85114501D01*
X74028848Y-85114853D01*
X74028840Y-85114854D01*
X73972515Y-85120909D01*
X73837667Y-85171204D01*
X73734310Y-85248577D01*
X73668846Y-85272994D01*
X73600573Y-85258142D01*
X73585690Y-85248577D01*
X73482333Y-85171205D01*
X73482331Y-85171204D01*
X73347483Y-85120909D01*
X73287873Y-85114500D01*
X73284550Y-85114500D01*
X71495439Y-85114500D01*
X71495420Y-85114500D01*
X71492128Y-85114501D01*
X71488848Y-85114853D01*
X71488840Y-85114854D01*
X71432515Y-85120909D01*
X71297669Y-85171204D01*
X71182454Y-85257454D01*
X71096204Y-85372668D01*
X71045910Y-85507515D01*
X71045909Y-85507517D01*
X71039500Y-85567127D01*
X71039500Y-85570449D01*
X71039500Y-88200614D01*
X71039028Y-88211421D01*
X71034340Y-88265000D01*
X71039028Y-88318579D01*
X71039500Y-88329386D01*
X71039500Y-89159560D01*
X71039500Y-89159578D01*
X71039501Y-89162872D01*
X71039853Y-89166152D01*
X71039854Y-89166159D01*
X71045909Y-89222484D01*
X71051371Y-89237128D01*
X71096204Y-89357331D01*
X71182454Y-89472546D01*
X71297669Y-89558796D01*
X71432517Y-89609091D01*
X71492127Y-89615500D01*
X72325613Y-89615499D01*
X72336422Y-89615971D01*
X72390000Y-89620659D01*
X72443578Y-89615971D01*
X72454387Y-89615499D01*
X72804546Y-89615499D01*
X72871585Y-89635184D01*
X72892227Y-89651818D01*
X74429196Y-91188787D01*
X74442096Y-91204888D01*
X74493223Y-91252900D01*
X74496020Y-91255611D01*
X74515529Y-91275120D01*
X74518709Y-91277587D01*
X74527571Y-91285155D01*
X74532389Y-91289680D01*
X74559418Y-91315062D01*
X74576970Y-91324711D01*
X74593238Y-91335397D01*
X74609064Y-91347673D01*
X74649146Y-91365017D01*
X74659633Y-91370155D01*
X74697907Y-91391197D01*
X74706410Y-91393379D01*
X74717308Y-91396178D01*
X74735713Y-91402478D01*
X74754104Y-91410437D01*
X74797250Y-91417270D01*
X74808668Y-91419635D01*
X74850981Y-91430500D01*
X74871016Y-91430500D01*
X74890415Y-91432027D01*
X74910196Y-91435160D01*
X74953674Y-91431050D01*
X74965344Y-91430500D01*
X75995501Y-91430500D01*
X76062540Y-91450185D01*
X76108295Y-91502989D01*
X76119501Y-91554500D01*
X76119501Y-91702872D01*
X76119853Y-91706152D01*
X76119854Y-91706159D01*
X76125909Y-91762484D01*
X76143614Y-91809952D01*
X76176204Y-91897331D01*
X76262454Y-92012546D01*
X76377669Y-92098796D01*
X76512517Y-92149091D01*
X76572127Y-92155500D01*
X78367872Y-92155499D01*
X78427483Y-92149091D01*
X78562331Y-92098796D01*
X78677546Y-92012546D01*
X78763796Y-91897331D01*
X78812810Y-91765916D01*
X78854681Y-91709983D01*
X78920146Y-91685566D01*
X78988419Y-91700418D01*
X79016672Y-91721568D01*
X79138599Y-91843495D01*
X79332170Y-91979035D01*
X79546337Y-92078903D01*
X79753558Y-92134427D01*
X79774592Y-92140063D01*
X80020727Y-92161598D01*
X80085795Y-92187051D01*
X80126774Y-92243641D01*
X80130652Y-92313403D01*
X80097600Y-92372807D01*
X75181208Y-97289199D01*
X75165110Y-97302096D01*
X75117096Y-97353225D01*
X75114392Y-97356016D01*
X75097628Y-97372780D01*
X75097621Y-97372787D01*
X75094880Y-97375529D01*
X75092499Y-97378597D01*
X75092490Y-97378608D01*
X75092411Y-97378711D01*
X75084842Y-97387572D01*
X75054935Y-97419420D01*
X75045285Y-97436974D01*
X75034609Y-97453228D01*
X75022326Y-97469063D01*
X75004975Y-97509158D01*
X74999838Y-97519644D01*
X74978802Y-97557907D01*
X74973821Y-97577309D01*
X74967520Y-97595711D01*
X74959561Y-97614102D01*
X74952728Y-97657242D01*
X74950360Y-97668674D01*
X74939500Y-97710977D01*
X74939500Y-97731016D01*
X74937973Y-97750414D01*
X74934840Y-97770194D01*
X74938950Y-97813673D01*
X74939500Y-97825343D01*
X74939500Y-101517256D01*
X74937235Y-101537766D01*
X74939439Y-101607872D01*
X74939500Y-101611767D01*
X74939500Y-101639350D01*
X74939988Y-101643219D01*
X74939989Y-101643225D01*
X74940004Y-101643343D01*
X74940918Y-101654967D01*
X74942290Y-101698626D01*
X74947879Y-101717860D01*
X74951825Y-101736916D01*
X74954335Y-101756792D01*
X74970414Y-101797404D01*
X74974197Y-101808451D01*
X74986382Y-101850391D01*
X74996580Y-101867635D01*
X75005136Y-101885100D01*
X75012514Y-101903732D01*
X75012515Y-101903733D01*
X75038180Y-101939059D01*
X75044593Y-101948822D01*
X75066826Y-101986416D01*
X75066829Y-101986419D01*
X75066830Y-101986420D01*
X75080995Y-102000585D01*
X75093627Y-102015375D01*
X75105406Y-102031587D01*
X75115956Y-102040315D01*
X75135040Y-102056102D01*
X75174148Y-102114001D01*
X75180000Y-102151646D01*
X75180000Y-103058505D01*
X75075161Y-103010627D01*
X74966473Y-102995000D01*
X74893527Y-102995000D01*
X74784839Y-103010627D01*
X74680000Y-103058505D01*
X74680000Y-102155000D01*
X74035482Y-102155000D01*
X74028867Y-102155354D01*
X73972628Y-102161400D01*
X73837908Y-102211648D01*
X73734726Y-102288890D01*
X73669262Y-102313307D01*
X73600989Y-102298455D01*
X73586111Y-102288894D01*
X73482331Y-102211204D01*
X73347483Y-102160909D01*
X73295816Y-102155354D01*
X73291166Y-102154854D01*
X73291165Y-102154853D01*
X73287873Y-102154500D01*
X73284551Y-102154500D01*
X72454383Y-102154500D01*
X72443576Y-102154028D01*
X72440170Y-102153730D01*
X72389999Y-102149340D01*
X72336422Y-102154028D01*
X72325615Y-102154500D01*
X71495439Y-102154500D01*
X71495420Y-102154500D01*
X71492128Y-102154501D01*
X71488848Y-102154853D01*
X71488840Y-102154854D01*
X71432515Y-102160909D01*
X71297669Y-102211204D01*
X71182454Y-102297454D01*
X71096204Y-102412668D01*
X71096203Y-102412669D01*
X71096204Y-102412669D01*
X71045909Y-102547517D01*
X71039500Y-102607127D01*
X71039500Y-102610449D01*
X71039500Y-103440618D01*
X71039028Y-103451426D01*
X71034340Y-103504999D01*
X71039028Y-103558573D01*
X71039500Y-103569381D01*
X71039500Y-106199560D01*
X71039500Y-106199578D01*
X71039501Y-106202872D01*
X71039853Y-106206152D01*
X71039854Y-106206159D01*
X71045909Y-106262484D01*
X71048301Y-106268896D01*
X71096204Y-106397331D01*
X71182454Y-106512546D01*
X71297669Y-106598796D01*
X71432517Y-106649091D01*
X71492127Y-106655500D01*
X73287872Y-106655499D01*
X73347483Y-106649091D01*
X73482331Y-106598796D01*
X73586107Y-106521108D01*
X73651569Y-106496692D01*
X73719842Y-106511543D01*
X73734727Y-106521109D01*
X73837911Y-106598352D01*
X73972628Y-106648599D01*
X74028867Y-106654645D01*
X74035482Y-106655000D01*
X74680000Y-106655000D01*
X74680000Y-103951494D01*
X74784839Y-103999373D01*
X74893527Y-104015000D01*
X74966473Y-104015000D01*
X75075161Y-103999373D01*
X75180000Y-103951494D01*
X75180000Y-106655000D01*
X75824518Y-106655000D01*
X75831132Y-106654645D01*
X75887371Y-106648599D01*
X76022089Y-106598352D01*
X76125270Y-106521110D01*
X76190734Y-106496692D01*
X76259008Y-106511543D01*
X76273890Y-106521107D01*
X76377669Y-106598796D01*
X76512517Y-106649091D01*
X76572127Y-106655500D01*
X78367872Y-106655499D01*
X78427483Y-106649091D01*
X78562331Y-106598796D01*
X78665689Y-106521421D01*
X78731154Y-106497005D01*
X78799427Y-106511857D01*
X78814309Y-106521421D01*
X78917669Y-106598796D01*
X79052517Y-106649091D01*
X79112127Y-106655500D01*
X80907872Y-106655499D01*
X80967483Y-106649091D01*
X81102331Y-106598796D01*
X81205689Y-106521421D01*
X81271154Y-106497005D01*
X81339427Y-106511857D01*
X81354309Y-106521421D01*
X81457669Y-106598796D01*
X81592517Y-106649091D01*
X81652127Y-106655500D01*
X83447872Y-106655499D01*
X83507483Y-106649091D01*
X83642331Y-106598796D01*
X83745689Y-106521421D01*
X83811154Y-106497005D01*
X83879427Y-106511857D01*
X83894309Y-106521421D01*
X83997669Y-106598796D01*
X84132517Y-106649091D01*
X84192127Y-106655500D01*
X85987872Y-106655499D01*
X86047483Y-106649091D01*
X86182331Y-106598796D01*
X86285689Y-106521421D01*
X86351154Y-106497005D01*
X86419427Y-106511857D01*
X86434309Y-106521421D01*
X86537669Y-106598796D01*
X86672517Y-106649091D01*
X86732127Y-106655500D01*
X88527872Y-106655499D01*
X88587483Y-106649091D01*
X88722331Y-106598796D01*
X88825689Y-106521421D01*
X88891154Y-106497005D01*
X88959427Y-106511857D01*
X88974309Y-106521421D01*
X89077669Y-106598796D01*
X89212517Y-106649091D01*
X89272127Y-106655500D01*
X91067872Y-106655499D01*
X91127483Y-106649091D01*
X91262331Y-106598796D01*
X91365689Y-106521421D01*
X91431154Y-106497005D01*
X91499427Y-106511857D01*
X91514309Y-106521421D01*
X91617669Y-106598796D01*
X91752517Y-106649091D01*
X91812127Y-106655500D01*
X93607872Y-106655499D01*
X93667483Y-106649091D01*
X93802331Y-106598796D01*
X93917546Y-106512546D01*
X94003796Y-106397331D01*
X94054091Y-106262483D01*
X94060500Y-106202873D01*
X94060500Y-105884999D01*
X98194340Y-105884999D01*
X98214936Y-106120407D01*
X98253546Y-106264501D01*
X98276097Y-106348663D01*
X98375965Y-106562829D01*
X98511505Y-106756401D01*
X98678599Y-106923495D01*
X98872171Y-107059035D01*
X99086337Y-107158903D01*
X99314592Y-107220063D01*
X99491034Y-107235500D01*
X99493742Y-107235500D01*
X99606258Y-107235500D01*
X99608966Y-107235500D01*
X99785408Y-107220063D01*
X100013663Y-107158903D01*
X100227829Y-107059035D01*
X100421401Y-106923495D01*
X100588495Y-106756401D01*
X100724035Y-106562830D01*
X100823903Y-106348663D01*
X100885063Y-106120408D01*
X100905659Y-105885000D01*
X100885063Y-105649592D01*
X100823903Y-105421337D01*
X100724035Y-105207171D01*
X100588495Y-105013599D01*
X100421401Y-104846505D01*
X100227829Y-104710965D01*
X100013663Y-104611097D01*
X99785407Y-104549936D01*
X99611667Y-104534736D01*
X99611659Y-104534735D01*
X99608966Y-104534500D01*
X99491034Y-104534500D01*
X99488341Y-104534735D01*
X99488332Y-104534736D01*
X99314592Y-104549936D01*
X99086336Y-104611097D01*
X98872170Y-104710965D01*
X98678598Y-104846505D01*
X98511508Y-105013595D01*
X98511505Y-105013598D01*
X98511505Y-105013599D01*
X98438948Y-105117222D01*
X98375964Y-105207172D01*
X98276097Y-105421337D01*
X98214936Y-105649592D01*
X98194340Y-105884999D01*
X94060500Y-105884999D01*
X94060499Y-103569381D01*
X94060971Y-103558578D01*
X94060972Y-103558573D01*
X94065659Y-103505000D01*
X94060971Y-103451418D01*
X94060499Y-103440610D01*
X94060499Y-103072978D01*
X94080184Y-103005939D01*
X94132988Y-102960184D01*
X94184499Y-102948978D01*
X96218513Y-102948978D01*
X96234697Y-102950038D01*
X96266000Y-102954160D01*
X96297302Y-102950038D01*
X96313487Y-102948978D01*
X97420369Y-102948978D01*
X97467820Y-102958416D01*
X97597288Y-103012044D01*
X97675669Y-103022363D01*
X97754049Y-103032682D01*
X97754049Y-103032681D01*
X97754050Y-103032682D01*
X97785352Y-103028560D01*
X97801537Y-103027500D01*
X100221903Y-103027500D01*
X100288942Y-103047185D01*
X100309584Y-103063819D01*
X103011799Y-105766034D01*
X103022494Y-105778229D01*
X103041718Y-105803282D01*
X103082525Y-105834594D01*
X103167159Y-105899536D01*
X103313238Y-105960044D01*
X103470000Y-105980683D01*
X103501308Y-105976560D01*
X103517494Y-105975500D01*
X103947950Y-105975500D01*
X103978788Y-105979396D01*
X104060980Y-106000500D01*
X104060981Y-106000500D01*
X106635501Y-106000500D01*
X106702540Y-106020185D01*
X106748295Y-106072989D01*
X106759501Y-106124500D01*
X106759501Y-106410499D01*
X106739816Y-106477538D01*
X106687012Y-106523293D01*
X106635501Y-106534499D01*
X106133039Y-106534499D01*
X106106844Y-106542189D01*
X106089567Y-106545947D01*
X106062541Y-106549833D01*
X106037711Y-106561173D01*
X106021140Y-106567354D01*
X105994947Y-106575045D01*
X105971979Y-106589805D01*
X105956463Y-106598277D01*
X105931629Y-106609619D01*
X105910998Y-106627496D01*
X105896842Y-106638093D01*
X105873871Y-106652856D01*
X105855992Y-106673489D01*
X105843490Y-106685991D01*
X105822857Y-106703870D01*
X105808094Y-106726841D01*
X105797497Y-106740997D01*
X105779620Y-106761628D01*
X105768278Y-106786462D01*
X105759806Y-106801978D01*
X105745046Y-106824946D01*
X105737355Y-106851139D01*
X105731174Y-106867710D01*
X105719834Y-106892540D01*
X105715948Y-106919566D01*
X105712190Y-106936843D01*
X105704500Y-106963037D01*
X105704500Y-108476872D01*
X105703439Y-108493059D01*
X105693017Y-108572215D01*
X105684639Y-108603480D01*
X105657225Y-108669664D01*
X105641039Y-108697699D01*
X105597425Y-108754537D01*
X105574537Y-108777425D01*
X105517699Y-108821039D01*
X105489664Y-108837225D01*
X105423480Y-108864639D01*
X105392215Y-108873017D01*
X105329008Y-108881339D01*
X105313057Y-108883439D01*
X105296873Y-108884500D01*
X73812558Y-108884500D01*
X73807434Y-108884394D01*
X73402271Y-108867638D01*
X73392057Y-108866792D01*
X72992196Y-108816949D01*
X72982087Y-108815262D01*
X72587712Y-108732570D01*
X72577777Y-108730054D01*
X72191574Y-108615077D01*
X72181881Y-108611749D01*
X71806496Y-108465272D01*
X71797111Y-108461155D01*
X71435117Y-108284187D01*
X71426103Y-108279310D01*
X71079933Y-108073038D01*
X71071353Y-108067432D01*
X70743410Y-107833285D01*
X70735323Y-107826990D01*
X70427842Y-107566567D01*
X70420302Y-107559626D01*
X70135373Y-107274697D01*
X70128432Y-107267157D01*
X70089570Y-107221273D01*
X69868004Y-106959670D01*
X69861714Y-106951589D01*
X69841655Y-106923495D01*
X69627563Y-106623640D01*
X69621961Y-106615066D01*
X69618715Y-106609619D01*
X69415689Y-106268896D01*
X69410812Y-106259882D01*
X69233844Y-105897888D01*
X69229727Y-105888503D01*
X69083999Y-105515037D01*
X69083245Y-105513106D01*
X69079926Y-105503439D01*
X68964941Y-105117209D01*
X68962432Y-105107301D01*
X68879734Y-104712898D01*
X68878052Y-104702818D01*
X68828205Y-104302921D01*
X68827362Y-104292748D01*
X68810604Y-103887564D01*
X68810498Y-103882440D01*
X68810498Y-93554202D01*
X68810498Y-83293112D01*
X68811557Y-83276958D01*
X68821983Y-83197779D01*
X68830359Y-83166522D01*
X68857776Y-83100331D01*
X68873960Y-83072300D01*
X68917574Y-83015462D01*
X68940462Y-82992574D01*
X68997300Y-82948960D01*
X69025331Y-82932776D01*
X69091522Y-82905359D01*
X69122783Y-82896982D01*
X69178781Y-82889610D01*
X69201942Y-82886561D01*
X69218127Y-82885500D01*
X69275892Y-82885500D01*
X105239108Y-82885500D01*
X105296873Y-82885500D01*
X105313058Y-82886561D01*
G37*
G04 #@! TD.AperFunction*
G04 #@! TA.AperFunction,Conductor*
G36*
X84630507Y-101174844D02*
G01*
X84708239Y-101295798D01*
X84816900Y-101389952D01*
X84947685Y-101449680D01*
X84957466Y-101451086D01*
X84290369Y-102118181D01*
X84229046Y-102151666D01*
X84202700Y-102154500D01*
X84195445Y-102154500D01*
X84195426Y-102154500D01*
X84192128Y-102154501D01*
X84188848Y-102154853D01*
X84188840Y-102154854D01*
X84132515Y-102160909D01*
X83997667Y-102211204D01*
X83894310Y-102288577D01*
X83828846Y-102312994D01*
X83760573Y-102298142D01*
X83745690Y-102288577D01*
X83642333Y-102211205D01*
X83642331Y-102211204D01*
X83570404Y-102184377D01*
X83510916Y-102162189D01*
X83454983Y-102120317D01*
X83430566Y-102054853D01*
X83445418Y-101986580D01*
X83466563Y-101958332D01*
X83588495Y-101836401D01*
X83718732Y-101650403D01*
X83773307Y-101606780D01*
X83842805Y-101599586D01*
X83905160Y-101631109D01*
X83921880Y-101650405D01*
X83975073Y-101726373D01*
X84606923Y-101094523D01*
X84630507Y-101174844D01*
G37*
G04 #@! TD.AperFunction*
G04 #@! TA.AperFunction,Conductor*
G36*
X86204925Y-101726373D02*
G01*
X86258119Y-101650405D01*
X86312696Y-101606780D01*
X86382194Y-101599586D01*
X86444549Y-101631109D01*
X86461265Y-101650400D01*
X86591505Y-101836401D01*
X86591508Y-101836404D01*
X86713430Y-101958326D01*
X86746915Y-102019649D01*
X86741931Y-102089341D01*
X86700059Y-102145274D01*
X86669083Y-102162189D01*
X86537666Y-102211205D01*
X86434310Y-102288577D01*
X86368846Y-102312994D01*
X86300573Y-102298142D01*
X86285690Y-102288577D01*
X86182333Y-102211205D01*
X86182331Y-102211204D01*
X86047483Y-102160909D01*
X85995816Y-102155354D01*
X85991166Y-102154854D01*
X85991165Y-102154853D01*
X85987873Y-102154500D01*
X85984551Y-102154500D01*
X85977310Y-102154500D01*
X85910271Y-102134815D01*
X85889629Y-102118181D01*
X85222533Y-101451086D01*
X85232315Y-101449680D01*
X85363100Y-101389952D01*
X85471761Y-101295798D01*
X85549493Y-101174844D01*
X85573076Y-101094524D01*
X86204925Y-101726373D01*
G37*
G04 #@! TD.AperFunction*
G04 #@! TA.AperFunction,Conductor*
G36*
X105031230Y-102114281D02*
G01*
X105062368Y-102136958D01*
X106084197Y-103158787D01*
X106097098Y-103174889D01*
X106099212Y-103176874D01*
X106099214Y-103176877D01*
X106146561Y-103221339D01*
X106148240Y-103222916D01*
X106151036Y-103225626D01*
X106170530Y-103245120D01*
X106173615Y-103247513D01*
X106173701Y-103247580D01*
X106182573Y-103255158D01*
X106214418Y-103285062D01*
X106231974Y-103294714D01*
X106248231Y-103305392D01*
X106264064Y-103317674D01*
X106280185Y-103324649D01*
X106304156Y-103335023D01*
X106314643Y-103340160D01*
X106352908Y-103361197D01*
X106372316Y-103366180D01*
X106390710Y-103372478D01*
X106409105Y-103380438D01*
X106452254Y-103387271D01*
X106463680Y-103389638D01*
X106467683Y-103390666D01*
X106505980Y-103400500D01*
X106505981Y-103400500D01*
X106526016Y-103400500D01*
X106545413Y-103402026D01*
X106565196Y-103405160D01*
X106608674Y-103401050D01*
X106620344Y-103400500D01*
X106635501Y-103400500D01*
X106702540Y-103420185D01*
X106748295Y-103472989D01*
X106759501Y-103524499D01*
X106759501Y-103832872D01*
X106759853Y-103836152D01*
X106759854Y-103836159D01*
X106764829Y-103882440D01*
X106765909Y-103892483D01*
X106805776Y-103999373D01*
X106821551Y-104041666D01*
X106826535Y-104111357D01*
X106821551Y-104128332D01*
X106765909Y-104277514D01*
X106763722Y-104297857D01*
X106759500Y-104337127D01*
X106759500Y-104340449D01*
X106759500Y-104625500D01*
X106739815Y-104692539D01*
X106687011Y-104738294D01*
X106635500Y-104749500D01*
X104100650Y-104749500D01*
X104096790Y-104749987D01*
X104096783Y-104749988D01*
X103983208Y-104764335D01*
X103979530Y-104765792D01*
X103933882Y-104774500D01*
X103770097Y-104774500D01*
X103703058Y-104754815D01*
X103682416Y-104738181D01*
X102465916Y-103521681D01*
X102432431Y-103460358D01*
X102437415Y-103390666D01*
X102479287Y-103334733D01*
X102544751Y-103310316D01*
X102553597Y-103310000D01*
X102650000Y-103310000D01*
X102650000Y-102410000D01*
X103150000Y-102410000D01*
X103150000Y-103310000D01*
X103459473Y-103310000D01*
X103464587Y-103309788D01*
X103647737Y-103294612D01*
X103888721Y-103233586D01*
X104116365Y-103133733D01*
X104324477Y-102997766D01*
X104507368Y-102829403D01*
X104660053Y-102633233D01*
X104778369Y-102414605D01*
X104857406Y-102184377D01*
X104897791Y-102127361D01*
X104962590Y-102101230D01*
X105031230Y-102114281D01*
G37*
G04 #@! TD.AperFunction*
G04 #@! TA.AperFunction,Conductor*
G36*
X84630507Y-91014844D02*
G01*
X84708239Y-91135798D01*
X84816900Y-91229952D01*
X84947685Y-91289680D01*
X84957466Y-91291086D01*
X84328625Y-91919925D01*
X84412420Y-91978599D01*
X84626507Y-92078430D01*
X84854681Y-92139569D01*
X85090000Y-92160157D01*
X85325318Y-92139569D01*
X85553492Y-92078430D01*
X85767576Y-91978600D01*
X85851373Y-91919925D01*
X85222533Y-91291086D01*
X85232315Y-91289680D01*
X85363100Y-91229952D01*
X85471761Y-91135798D01*
X85549493Y-91014844D01*
X85573076Y-90934524D01*
X86204925Y-91566373D01*
X86258119Y-91490405D01*
X86312696Y-91446780D01*
X86382194Y-91439586D01*
X86444549Y-91471109D01*
X86461265Y-91490400D01*
X86591505Y-91676401D01*
X86758599Y-91843495D01*
X86952170Y-91979035D01*
X87166337Y-92078903D01*
X87373558Y-92134427D01*
X87394592Y-92140063D01*
X87629999Y-92160659D01*
X87629999Y-92160658D01*
X87630000Y-92160659D01*
X87865408Y-92140063D01*
X88093663Y-92078903D01*
X88307830Y-91979035D01*
X88501401Y-91843495D01*
X88668495Y-91676401D01*
X88798426Y-91490839D01*
X88853002Y-91447216D01*
X88922500Y-91440022D01*
X88984855Y-91471545D01*
X89001571Y-91490837D01*
X89131505Y-91676401D01*
X89298599Y-91843495D01*
X89492170Y-91979035D01*
X89706337Y-92078903D01*
X89913558Y-92134427D01*
X89934592Y-92140063D01*
X90169999Y-92160659D01*
X90169999Y-92160658D01*
X90170000Y-92160659D01*
X90405408Y-92140063D01*
X90633663Y-92078903D01*
X90847830Y-91979035D01*
X91041401Y-91843495D01*
X91163329Y-91721566D01*
X91224648Y-91688084D01*
X91294340Y-91693068D01*
X91350274Y-91734939D01*
X91367189Y-91765916D01*
X91383614Y-91809952D01*
X91416204Y-91897331D01*
X91477042Y-91978600D01*
X91493578Y-92000689D01*
X91517995Y-92066154D01*
X91503143Y-92134427D01*
X91493578Y-92149311D01*
X91416204Y-92252668D01*
X91365910Y-92387515D01*
X91365909Y-92387517D01*
X91359500Y-92447127D01*
X91359500Y-92450449D01*
X91359500Y-93280615D01*
X91359028Y-93291422D01*
X91354340Y-93344999D01*
X91359028Y-93398576D01*
X91359500Y-93409384D01*
X91359500Y-94239560D01*
X91359500Y-94239578D01*
X91359501Y-94242872D01*
X91359853Y-94246152D01*
X91359854Y-94246159D01*
X91365909Y-94302484D01*
X91390972Y-94369680D01*
X91416204Y-94437331D01*
X91455055Y-94489229D01*
X91493577Y-94540688D01*
X91517994Y-94606153D01*
X91503142Y-94674426D01*
X91493578Y-94689309D01*
X91416204Y-94792669D01*
X91365910Y-94927515D01*
X91365909Y-94927517D01*
X91359500Y-94987127D01*
X91359500Y-94990449D01*
X91359500Y-95820615D01*
X91359028Y-95831422D01*
X91354340Y-95884999D01*
X91359028Y-95938576D01*
X91359500Y-95949384D01*
X91359500Y-96214944D01*
X91359501Y-96430500D01*
X91339817Y-96497539D01*
X91287013Y-96543294D01*
X91235501Y-96554500D01*
X90852487Y-96554500D01*
X90836302Y-96553439D01*
X90832376Y-96552922D01*
X90804999Y-96549317D01*
X90769741Y-96553959D01*
X90765639Y-96554500D01*
X90706938Y-96562228D01*
X90648237Y-96569956D01*
X90502159Y-96630463D01*
X90376716Y-96726718D01*
X90357494Y-96751770D01*
X90346800Y-96763964D01*
X89778965Y-97331798D01*
X89766773Y-97342491D01*
X89741717Y-97361717D01*
X89664256Y-97462669D01*
X89645463Y-97487159D01*
X89584956Y-97633237D01*
X89564317Y-97789999D01*
X89568439Y-97821301D01*
X89569500Y-97837487D01*
X89569500Y-99675909D01*
X89549815Y-99742948D01*
X89497907Y-99788290D01*
X89492171Y-99790964D01*
X89298598Y-99926505D01*
X89131505Y-100093598D01*
X89001575Y-100279159D01*
X88946998Y-100322784D01*
X88877500Y-100329978D01*
X88815145Y-100298455D01*
X88798425Y-100279159D01*
X88744361Y-100201947D01*
X88668495Y-100093599D01*
X88501401Y-99926505D01*
X88307830Y-99790965D01*
X88093663Y-99691097D01*
X88015091Y-99670044D01*
X87865407Y-99629936D01*
X87629999Y-99609340D01*
X87394592Y-99629936D01*
X87166336Y-99691097D01*
X86952170Y-99790965D01*
X86758598Y-99926505D01*
X86591508Y-100093595D01*
X86591507Y-100093597D01*
X86591505Y-100093599D01*
X86461271Y-100279594D01*
X86461270Y-100279595D01*
X86406693Y-100323219D01*
X86337194Y-100330412D01*
X86274840Y-100298890D01*
X86258120Y-100279595D01*
X86204925Y-100203626D01*
X86204925Y-100203625D01*
X85573076Y-100835475D01*
X85549493Y-100755156D01*
X85471761Y-100634202D01*
X85363100Y-100540048D01*
X85232315Y-100480320D01*
X85222531Y-100478913D01*
X85851373Y-99850073D01*
X85851373Y-99850072D01*
X85767580Y-99791400D01*
X85553492Y-99691569D01*
X85325318Y-99630430D01*
X85090000Y-99609842D01*
X84854681Y-99630430D01*
X84626507Y-99691569D01*
X84412422Y-99791399D01*
X84328626Y-99850072D01*
X84328625Y-99850073D01*
X84957466Y-100478913D01*
X84947685Y-100480320D01*
X84816900Y-100540048D01*
X84708239Y-100634202D01*
X84630507Y-100755156D01*
X84606923Y-100835476D01*
X83975073Y-100203626D01*
X83921881Y-100279594D01*
X83867304Y-100323219D01*
X83797806Y-100330413D01*
X83735451Y-100298891D01*
X83718730Y-100279595D01*
X83588495Y-100093599D01*
X83421401Y-99926505D01*
X83227830Y-99790965D01*
X83013663Y-99691097D01*
X82935091Y-99670044D01*
X82785407Y-99629936D01*
X82549999Y-99609340D01*
X82314592Y-99629936D01*
X82086336Y-99691097D01*
X81872170Y-99790965D01*
X81678598Y-99926505D01*
X81511505Y-100093598D01*
X81381575Y-100279159D01*
X81326998Y-100322784D01*
X81257500Y-100329978D01*
X81195145Y-100298455D01*
X81178425Y-100279159D01*
X81124361Y-100201947D01*
X81048495Y-100093599D01*
X80881401Y-99926505D01*
X80687830Y-99790965D01*
X80473663Y-99691097D01*
X80395091Y-99670044D01*
X80245407Y-99629936D01*
X80010000Y-99609340D01*
X79774592Y-99629936D01*
X79546336Y-99691097D01*
X79332170Y-99790965D01*
X79138598Y-99926505D01*
X78971505Y-100093598D01*
X78841575Y-100279159D01*
X78786998Y-100322784D01*
X78717500Y-100329978D01*
X78655145Y-100298455D01*
X78638425Y-100279159D01*
X78584361Y-100201947D01*
X78508495Y-100093599D01*
X78341401Y-99926505D01*
X78147830Y-99790965D01*
X77933663Y-99691097D01*
X77855091Y-99670044D01*
X77705407Y-99629936D01*
X77470000Y-99609340D01*
X77234592Y-99629936D01*
X77006336Y-99691097D01*
X76792170Y-99790965D01*
X76598598Y-99926505D01*
X76431506Y-100093597D01*
X76416074Y-100115637D01*
X76361497Y-100159261D01*
X76291998Y-100166453D01*
X76229644Y-100134930D01*
X76194231Y-100074700D01*
X76190500Y-100044512D01*
X76190500Y-98100451D01*
X76210185Y-98033412D01*
X76226819Y-98012770D01*
X79081152Y-95158437D01*
X82094353Y-92145235D01*
X82155674Y-92111752D01*
X82214125Y-92113142D01*
X82314592Y-92140063D01*
X82420295Y-92149311D01*
X82549999Y-92160659D01*
X82549999Y-92160658D01*
X82550000Y-92160659D01*
X82785408Y-92140063D01*
X83013663Y-92078903D01*
X83227830Y-91979035D01*
X83421401Y-91843495D01*
X83588495Y-91676401D01*
X83718732Y-91490403D01*
X83773307Y-91446780D01*
X83842805Y-91439586D01*
X83905160Y-91471109D01*
X83921880Y-91490405D01*
X83975073Y-91566373D01*
X84606922Y-90934523D01*
X84630507Y-91014844D01*
G37*
G04 #@! TD.AperFunction*
G04 #@! TA.AperFunction,Conductor*
G36*
X100231095Y-99564427D02*
G01*
X100259852Y-99580909D01*
X100297159Y-99609536D01*
X100443238Y-99670044D01*
X100565599Y-99686153D01*
X100599999Y-99690682D01*
X100599999Y-99690681D01*
X100600000Y-99690682D01*
X100631302Y-99686560D01*
X100647487Y-99685500D01*
X101603068Y-99685500D01*
X101670107Y-99705185D01*
X101715862Y-99757989D01*
X101725806Y-99827147D01*
X101718695Y-99854294D01*
X101640864Y-100055199D01*
X101625948Y-100135000D01*
X102366314Y-100135000D01*
X102340507Y-100175156D01*
X102300000Y-100313111D01*
X102300000Y-100456889D01*
X102340507Y-100594844D01*
X102366314Y-100635000D01*
X101684000Y-100635000D01*
X101616961Y-100615315D01*
X101588491Y-100582458D01*
X101560000Y-100567040D01*
X101475517Y-100622235D01*
X101292634Y-100790592D01*
X101139946Y-100986766D01*
X101021631Y-101205393D01*
X100940916Y-101440508D01*
X100920976Y-101559999D01*
X100920978Y-101560000D01*
X101854118Y-101560000D01*
X101815444Y-101653369D01*
X101794823Y-101810000D01*
X101815444Y-101966631D01*
X101854118Y-102060000D01*
X101058455Y-102060000D01*
X100991416Y-102040315D01*
X100960078Y-102011485D01*
X100950280Y-101998716D01*
X100824840Y-101902463D01*
X100678762Y-101841956D01*
X100561361Y-101826500D01*
X100522000Y-101821317D01*
X100494163Y-101824982D01*
X100490697Y-101825439D01*
X100474513Y-101826500D01*
X98009209Y-101826500D01*
X97961757Y-101817061D01*
X97832290Y-101763434D01*
X97714889Y-101747978D01*
X97675528Y-101742795D01*
X97647691Y-101746460D01*
X97644225Y-101746917D01*
X97628041Y-101747978D01*
X96990500Y-101747978D01*
X96923461Y-101728293D01*
X96877706Y-101675489D01*
X96866500Y-101623978D01*
X96866500Y-100757096D01*
X96886185Y-100690057D01*
X96902814Y-100669420D01*
X97240416Y-100331819D01*
X97301739Y-100298334D01*
X97328097Y-100295500D01*
X98542513Y-100295500D01*
X98558697Y-100296560D01*
X98590000Y-100300682D01*
X98746762Y-100280044D01*
X98892841Y-100219536D01*
X98915763Y-100201947D01*
X99018282Y-100123282D01*
X99037509Y-100098223D01*
X99048190Y-100086043D01*
X99540319Y-99593914D01*
X99601640Y-99560431D01*
X99650783Y-99559708D01*
X99788757Y-99585500D01*
X99788759Y-99585500D01*
X100011241Y-99585500D01*
X100011243Y-99585500D01*
X100161582Y-99557396D01*
X100231095Y-99564427D01*
G37*
G04 #@! TD.AperFunction*
G04 #@! TA.AperFunction,Conductor*
G36*
X106058869Y-98918916D02*
G01*
X106067540Y-98920162D01*
X106067543Y-98920164D01*
X106094570Y-98924050D01*
X106111849Y-98927809D01*
X106138039Y-98935499D01*
X106678116Y-98935499D01*
X106745155Y-98955184D01*
X106790910Y-99007988D01*
X106800854Y-99077146D01*
X106794298Y-99102833D01*
X106766400Y-99177628D01*
X106760354Y-99233867D01*
X106760000Y-99240481D01*
X106760000Y-100035000D01*
X107104482Y-100035000D01*
X107102209Y-100535000D01*
X106760000Y-100535000D01*
X106760000Y-101329518D01*
X106760354Y-101336132D01*
X106766400Y-101392373D01*
X106803168Y-101490951D01*
X106808152Y-101560643D01*
X106803168Y-101577616D01*
X106765909Y-101677512D01*
X106760656Y-101726373D01*
X106759500Y-101737127D01*
X106759500Y-101740448D01*
X106759500Y-101740449D01*
X106759500Y-101765547D01*
X106739815Y-101832586D01*
X106687011Y-101878341D01*
X106617853Y-101888285D01*
X106554297Y-101859260D01*
X106547819Y-101853228D01*
X105670686Y-100976096D01*
X105637201Y-100914773D01*
X105642185Y-100845082D01*
X105684057Y-100789148D01*
X105707927Y-100775137D01*
X105802230Y-100733151D01*
X105802230Y-100733150D01*
X105802232Y-100733150D01*
X105955370Y-100621889D01*
X106004757Y-100567040D01*
X106082033Y-100481216D01*
X106176679Y-100317284D01*
X106235174Y-100137256D01*
X106254960Y-99949000D01*
X106235174Y-99760744D01*
X106180968Y-99593916D01*
X106176679Y-99580715D01*
X106082035Y-99416786D01*
X106019496Y-99347330D01*
X105955371Y-99276112D01*
X105951111Y-99273017D01*
X105908447Y-99217687D01*
X105900000Y-99172705D01*
X105900000Y-99036595D01*
X105919685Y-98969557D01*
X105972489Y-98923802D01*
X106041648Y-98913859D01*
X106058869Y-98918916D01*
G37*
G04 #@! TD.AperFunction*
G04 #@! TA.AperFunction,Conductor*
G36*
X106192942Y-87361185D02*
G01*
X106213584Y-87377819D01*
X106673181Y-87837416D01*
X106706666Y-87898739D01*
X106709500Y-87925097D01*
X106709500Y-88329560D01*
X106709500Y-88329578D01*
X106709501Y-88332872D01*
X106715909Y-88392483D01*
X106766204Y-88527331D01*
X106810433Y-88586413D01*
X106852454Y-88642546D01*
X106910144Y-88685733D01*
X106952015Y-88741667D01*
X106956999Y-88811359D01*
X106923514Y-88872682D01*
X106910144Y-88884267D01*
X106852454Y-88927453D01*
X106766204Y-89042669D01*
X106747121Y-89093834D01*
X106705249Y-89149767D01*
X106639785Y-89174184D01*
X106630939Y-89174500D01*
X106233487Y-89174500D01*
X106217302Y-89173439D01*
X106213376Y-89172922D01*
X106185999Y-89169317D01*
X106150741Y-89173959D01*
X106146639Y-89174500D01*
X106091121Y-89181809D01*
X106029237Y-89189956D01*
X105883161Y-89250462D01*
X105835327Y-89287167D01*
X105757718Y-89346718D01*
X105757716Y-89346719D01*
X105757715Y-89346721D01*
X105738490Y-89371774D01*
X105727798Y-89383965D01*
X104888083Y-90223681D01*
X104826760Y-90257166D01*
X104800402Y-90260000D01*
X103945882Y-90260000D01*
X103984556Y-90166631D01*
X104005177Y-90010000D01*
X103984556Y-89853369D01*
X103945882Y-89760000D01*
X104879022Y-89760000D01*
X104879023Y-89759999D01*
X104859083Y-89640508D01*
X104778368Y-89405393D01*
X104660053Y-89186766D01*
X104507368Y-88990596D01*
X104324477Y-88822233D01*
X104116365Y-88686266D01*
X103888721Y-88586413D01*
X103647737Y-88525387D01*
X103464587Y-88510211D01*
X103459473Y-88510000D01*
X103150000Y-88510000D01*
X103150000Y-89410000D01*
X102650000Y-89410000D01*
X102650000Y-88510000D01*
X102602857Y-88510000D01*
X102535818Y-88490315D01*
X102490063Y-88437511D01*
X102480119Y-88368353D01*
X102509144Y-88304797D01*
X102515167Y-88298328D01*
X103435676Y-87377819D01*
X103497000Y-87344334D01*
X103523358Y-87341500D01*
X106125903Y-87341500D01*
X106192942Y-87361185D01*
G37*
G04 #@! TD.AperFunction*
M02*
