%TF.GenerationSoftware,KiCad,Pcbnew,7.0.2*%
%TF.CreationDate,2024-01-20T07:38:44+00:00*%
%TF.ProjectId,game-boy-zero-link-board,67616d65-2d62-46f7-992d-7a65726f2d6c,rev?*%
%TF.SameCoordinates,Original*%
%TF.FileFunction,Drillmap*%
%TF.FilePolarity,Positive*%
%FSLAX45Y45*%
G04 Gerber Fmt 4.5, Leading zero omitted, Abs format (unit mm)*
G04 Created by KiCad (PCBNEW 7.0.2) date 2024-01-20 07:38:44*
%MOMM*%
%LPD*%
G01*
G04 APERTURE LIST*
%ADD10C,0.100000*%
%ADD11C,0.200000*%
%ADD12C,0.220000*%
G04 APERTURE END LIST*
D10*
X6831000Y-10388500D02*
G75*
G03*
X7381000Y-10938500I550000J0D01*
G01*
X11271000Y-9103500D02*
X11271000Y-8453500D01*
X10620500Y-8328500D02*
G75*
G03*
X10530500Y-8238500I-90000J0D01*
G01*
X11576000Y-9843500D02*
X10621000Y-9843500D01*
X11576000Y-10703500D02*
X11576000Y-9843500D01*
X10620500Y-8453500D02*
X11271000Y-8453500D01*
X7381000Y-10938500D02*
X10530500Y-10938500D01*
X10530500Y-10938500D02*
G75*
G03*
X10620500Y-10848500I0J90000D01*
G01*
X10620500Y-8328500D02*
X10620500Y-8453500D01*
X6921000Y-8238500D02*
G75*
G03*
X6831000Y-8328500I0J-90000D01*
G01*
X10621000Y-9103500D02*
X10621000Y-9843500D01*
X10620500Y-10703500D02*
X10620500Y-10848500D01*
X10620500Y-10703500D02*
X11575500Y-10703500D01*
X6831000Y-8328500D02*
X6831000Y-10388500D01*
X10621000Y-9103500D02*
X11271000Y-9103500D01*
X10530500Y-8238500D02*
X6921000Y-8238500D01*
D11*
D12*
X9845000Y-8478500D02*
X10065000Y-8698500D01*
X10065000Y-8478500D02*
X9845000Y-8698500D01*
X9845000Y-10478500D02*
X10065000Y-10698500D01*
X10065000Y-10478500D02*
X9845000Y-10698500D01*
D11*
X7073619Y-11256024D02*
X7073619Y-11056024D01*
X7073619Y-11056024D02*
X7121238Y-11056024D01*
X7121238Y-11056024D02*
X7149809Y-11065548D01*
X7149809Y-11065548D02*
X7168857Y-11084595D01*
X7168857Y-11084595D02*
X7178381Y-11103643D01*
X7178381Y-11103643D02*
X7187904Y-11141738D01*
X7187904Y-11141738D02*
X7187904Y-11170310D01*
X7187904Y-11170310D02*
X7178381Y-11208405D01*
X7178381Y-11208405D02*
X7168857Y-11227452D01*
X7168857Y-11227452D02*
X7149809Y-11246500D01*
X7149809Y-11246500D02*
X7121238Y-11256024D01*
X7121238Y-11256024D02*
X7073619Y-11256024D01*
X7273619Y-11256024D02*
X7273619Y-11122691D01*
X7273619Y-11160786D02*
X7283143Y-11141738D01*
X7283143Y-11141738D02*
X7292666Y-11132214D01*
X7292666Y-11132214D02*
X7311714Y-11122691D01*
X7311714Y-11122691D02*
X7330762Y-11122691D01*
X7397428Y-11256024D02*
X7397428Y-11122691D01*
X7397428Y-11056024D02*
X7387904Y-11065548D01*
X7387904Y-11065548D02*
X7397428Y-11075072D01*
X7397428Y-11075072D02*
X7406952Y-11065548D01*
X7406952Y-11065548D02*
X7397428Y-11056024D01*
X7397428Y-11056024D02*
X7397428Y-11075072D01*
X7521238Y-11256024D02*
X7502190Y-11246500D01*
X7502190Y-11246500D02*
X7492666Y-11227452D01*
X7492666Y-11227452D02*
X7492666Y-11056024D01*
X7626000Y-11256024D02*
X7606952Y-11246500D01*
X7606952Y-11246500D02*
X7597428Y-11227452D01*
X7597428Y-11227452D02*
X7597428Y-11056024D01*
X7854571Y-11256024D02*
X7854571Y-11056024D01*
X7854571Y-11056024D02*
X7921238Y-11198881D01*
X7921238Y-11198881D02*
X7987904Y-11056024D01*
X7987904Y-11056024D02*
X7987904Y-11256024D01*
X8168857Y-11256024D02*
X8168857Y-11151262D01*
X8168857Y-11151262D02*
X8159333Y-11132214D01*
X8159333Y-11132214D02*
X8140285Y-11122691D01*
X8140285Y-11122691D02*
X8102190Y-11122691D01*
X8102190Y-11122691D02*
X8083143Y-11132214D01*
X8168857Y-11246500D02*
X8149809Y-11256024D01*
X8149809Y-11256024D02*
X8102190Y-11256024D01*
X8102190Y-11256024D02*
X8083143Y-11246500D01*
X8083143Y-11246500D02*
X8073619Y-11227452D01*
X8073619Y-11227452D02*
X8073619Y-11208405D01*
X8073619Y-11208405D02*
X8083143Y-11189357D01*
X8083143Y-11189357D02*
X8102190Y-11179834D01*
X8102190Y-11179834D02*
X8149809Y-11179834D01*
X8149809Y-11179834D02*
X8168857Y-11170310D01*
X8264095Y-11122691D02*
X8264095Y-11322691D01*
X8264095Y-11132214D02*
X8283143Y-11122691D01*
X8283143Y-11122691D02*
X8321238Y-11122691D01*
X8321238Y-11122691D02*
X8340285Y-11132214D01*
X8340285Y-11132214D02*
X8349809Y-11141738D01*
X8349809Y-11141738D02*
X8359333Y-11160786D01*
X8359333Y-11160786D02*
X8359333Y-11217929D01*
X8359333Y-11217929D02*
X8349809Y-11236976D01*
X8349809Y-11236976D02*
X8340285Y-11246500D01*
X8340285Y-11246500D02*
X8321238Y-11256024D01*
X8321238Y-11256024D02*
X8283143Y-11256024D01*
X8283143Y-11256024D02*
X8264095Y-11246500D01*
X8445047Y-11236976D02*
X8454571Y-11246500D01*
X8454571Y-11246500D02*
X8445047Y-11256024D01*
X8445047Y-11256024D02*
X8435524Y-11246500D01*
X8435524Y-11246500D02*
X8445047Y-11236976D01*
X8445047Y-11236976D02*
X8445047Y-11256024D01*
X8445047Y-11132214D02*
X8454571Y-11141738D01*
X8454571Y-11141738D02*
X8445047Y-11151262D01*
X8445047Y-11151262D02*
X8435524Y-11141738D01*
X8435524Y-11141738D02*
X8445047Y-11132214D01*
X8445047Y-11132214D02*
X8445047Y-11151262D01*
X6626000Y-11483500D02*
X6826000Y-11683500D01*
X6826000Y-11483500D02*
X6626000Y-11683500D01*
X7064095Y-11495072D02*
X7073619Y-11485548D01*
X7073619Y-11485548D02*
X7092666Y-11476024D01*
X7092666Y-11476024D02*
X7140285Y-11476024D01*
X7140285Y-11476024D02*
X7159333Y-11485548D01*
X7159333Y-11485548D02*
X7168857Y-11495072D01*
X7168857Y-11495072D02*
X7178381Y-11514119D01*
X7178381Y-11514119D02*
X7178381Y-11533167D01*
X7178381Y-11533167D02*
X7168857Y-11561738D01*
X7168857Y-11561738D02*
X7054571Y-11676024D01*
X7054571Y-11676024D02*
X7178381Y-11676024D01*
X7264095Y-11656976D02*
X7273619Y-11666500D01*
X7273619Y-11666500D02*
X7264095Y-11676024D01*
X7264095Y-11676024D02*
X7254571Y-11666500D01*
X7254571Y-11666500D02*
X7264095Y-11656976D01*
X7264095Y-11656976D02*
X7264095Y-11676024D01*
X7349809Y-11495072D02*
X7359333Y-11485548D01*
X7359333Y-11485548D02*
X7378381Y-11476024D01*
X7378381Y-11476024D02*
X7426000Y-11476024D01*
X7426000Y-11476024D02*
X7445047Y-11485548D01*
X7445047Y-11485548D02*
X7454571Y-11495072D01*
X7454571Y-11495072D02*
X7464095Y-11514119D01*
X7464095Y-11514119D02*
X7464095Y-11533167D01*
X7464095Y-11533167D02*
X7454571Y-11561738D01*
X7454571Y-11561738D02*
X7340285Y-11676024D01*
X7340285Y-11676024D02*
X7464095Y-11676024D01*
X7587904Y-11476024D02*
X7606952Y-11476024D01*
X7606952Y-11476024D02*
X7626000Y-11485548D01*
X7626000Y-11485548D02*
X7635524Y-11495072D01*
X7635524Y-11495072D02*
X7645047Y-11514119D01*
X7645047Y-11514119D02*
X7654571Y-11552214D01*
X7654571Y-11552214D02*
X7654571Y-11599833D01*
X7654571Y-11599833D02*
X7645047Y-11637929D01*
X7645047Y-11637929D02*
X7635524Y-11656976D01*
X7635524Y-11656976D02*
X7626000Y-11666500D01*
X7626000Y-11666500D02*
X7606952Y-11676024D01*
X7606952Y-11676024D02*
X7587904Y-11676024D01*
X7587904Y-11676024D02*
X7568857Y-11666500D01*
X7568857Y-11666500D02*
X7559333Y-11656976D01*
X7559333Y-11656976D02*
X7549809Y-11637929D01*
X7549809Y-11637929D02*
X7540285Y-11599833D01*
X7540285Y-11599833D02*
X7540285Y-11552214D01*
X7540285Y-11552214D02*
X7549809Y-11514119D01*
X7549809Y-11514119D02*
X7559333Y-11495072D01*
X7559333Y-11495072D02*
X7568857Y-11485548D01*
X7568857Y-11485548D02*
X7587904Y-11476024D01*
X7778381Y-11476024D02*
X7797428Y-11476024D01*
X7797428Y-11476024D02*
X7816476Y-11485548D01*
X7816476Y-11485548D02*
X7826000Y-11495072D01*
X7826000Y-11495072D02*
X7835524Y-11514119D01*
X7835524Y-11514119D02*
X7845047Y-11552214D01*
X7845047Y-11552214D02*
X7845047Y-11599833D01*
X7845047Y-11599833D02*
X7835524Y-11637929D01*
X7835524Y-11637929D02*
X7826000Y-11656976D01*
X7826000Y-11656976D02*
X7816476Y-11666500D01*
X7816476Y-11666500D02*
X7797428Y-11676024D01*
X7797428Y-11676024D02*
X7778381Y-11676024D01*
X7778381Y-11676024D02*
X7759333Y-11666500D01*
X7759333Y-11666500D02*
X7749809Y-11656976D01*
X7749809Y-11656976D02*
X7740285Y-11637929D01*
X7740285Y-11637929D02*
X7730762Y-11599833D01*
X7730762Y-11599833D02*
X7730762Y-11552214D01*
X7730762Y-11552214D02*
X7740285Y-11514119D01*
X7740285Y-11514119D02*
X7749809Y-11495072D01*
X7749809Y-11495072D02*
X7759333Y-11485548D01*
X7759333Y-11485548D02*
X7778381Y-11476024D01*
X7930762Y-11676024D02*
X7930762Y-11542691D01*
X7930762Y-11561738D02*
X7940285Y-11552214D01*
X7940285Y-11552214D02*
X7959333Y-11542691D01*
X7959333Y-11542691D02*
X7987905Y-11542691D01*
X7987905Y-11542691D02*
X8006952Y-11552214D01*
X8006952Y-11552214D02*
X8016476Y-11571262D01*
X8016476Y-11571262D02*
X8016476Y-11676024D01*
X8016476Y-11571262D02*
X8026000Y-11552214D01*
X8026000Y-11552214D02*
X8045047Y-11542691D01*
X8045047Y-11542691D02*
X8073619Y-11542691D01*
X8073619Y-11542691D02*
X8092666Y-11552214D01*
X8092666Y-11552214D02*
X8102190Y-11571262D01*
X8102190Y-11571262D02*
X8102190Y-11676024D01*
X8197428Y-11676024D02*
X8197428Y-11542691D01*
X8197428Y-11561738D02*
X8206952Y-11552214D01*
X8206952Y-11552214D02*
X8226000Y-11542691D01*
X8226000Y-11542691D02*
X8254571Y-11542691D01*
X8254571Y-11542691D02*
X8273619Y-11552214D01*
X8273619Y-11552214D02*
X8283143Y-11571262D01*
X8283143Y-11571262D02*
X8283143Y-11676024D01*
X8283143Y-11571262D02*
X8292666Y-11552214D01*
X8292666Y-11552214D02*
X8311714Y-11542691D01*
X8311714Y-11542691D02*
X8340285Y-11542691D01*
X8340285Y-11542691D02*
X8359333Y-11552214D01*
X8359333Y-11552214D02*
X8368857Y-11571262D01*
X8368857Y-11571262D02*
X8368857Y-11676024D01*
X8759333Y-11466500D02*
X8587905Y-11723643D01*
X9016476Y-11476024D02*
X9035524Y-11476024D01*
X9035524Y-11476024D02*
X9054571Y-11485548D01*
X9054571Y-11485548D02*
X9064095Y-11495072D01*
X9064095Y-11495072D02*
X9073619Y-11514119D01*
X9073619Y-11514119D02*
X9083143Y-11552214D01*
X9083143Y-11552214D02*
X9083143Y-11599833D01*
X9083143Y-11599833D02*
X9073619Y-11637929D01*
X9073619Y-11637929D02*
X9064095Y-11656976D01*
X9064095Y-11656976D02*
X9054571Y-11666500D01*
X9054571Y-11666500D02*
X9035524Y-11676024D01*
X9035524Y-11676024D02*
X9016476Y-11676024D01*
X9016476Y-11676024D02*
X8997429Y-11666500D01*
X8997429Y-11666500D02*
X8987905Y-11656976D01*
X8987905Y-11656976D02*
X8978381Y-11637929D01*
X8978381Y-11637929D02*
X8968857Y-11599833D01*
X8968857Y-11599833D02*
X8968857Y-11552214D01*
X8968857Y-11552214D02*
X8978381Y-11514119D01*
X8978381Y-11514119D02*
X8987905Y-11495072D01*
X8987905Y-11495072D02*
X8997429Y-11485548D01*
X8997429Y-11485548D02*
X9016476Y-11476024D01*
X9168857Y-11656976D02*
X9178381Y-11666500D01*
X9178381Y-11666500D02*
X9168857Y-11676024D01*
X9168857Y-11676024D02*
X9159333Y-11666500D01*
X9159333Y-11666500D02*
X9168857Y-11656976D01*
X9168857Y-11656976D02*
X9168857Y-11676024D01*
X9302190Y-11476024D02*
X9321238Y-11476024D01*
X9321238Y-11476024D02*
X9340286Y-11485548D01*
X9340286Y-11485548D02*
X9349810Y-11495072D01*
X9349810Y-11495072D02*
X9359333Y-11514119D01*
X9359333Y-11514119D02*
X9368857Y-11552214D01*
X9368857Y-11552214D02*
X9368857Y-11599833D01*
X9368857Y-11599833D02*
X9359333Y-11637929D01*
X9359333Y-11637929D02*
X9349810Y-11656976D01*
X9349810Y-11656976D02*
X9340286Y-11666500D01*
X9340286Y-11666500D02*
X9321238Y-11676024D01*
X9321238Y-11676024D02*
X9302190Y-11676024D01*
X9302190Y-11676024D02*
X9283143Y-11666500D01*
X9283143Y-11666500D02*
X9273619Y-11656976D01*
X9273619Y-11656976D02*
X9264095Y-11637929D01*
X9264095Y-11637929D02*
X9254571Y-11599833D01*
X9254571Y-11599833D02*
X9254571Y-11552214D01*
X9254571Y-11552214D02*
X9264095Y-11514119D01*
X9264095Y-11514119D02*
X9273619Y-11495072D01*
X9273619Y-11495072D02*
X9283143Y-11485548D01*
X9283143Y-11485548D02*
X9302190Y-11476024D01*
X9483143Y-11561738D02*
X9464095Y-11552214D01*
X9464095Y-11552214D02*
X9454571Y-11542691D01*
X9454571Y-11542691D02*
X9445048Y-11523643D01*
X9445048Y-11523643D02*
X9445048Y-11514119D01*
X9445048Y-11514119D02*
X9454571Y-11495072D01*
X9454571Y-11495072D02*
X9464095Y-11485548D01*
X9464095Y-11485548D02*
X9483143Y-11476024D01*
X9483143Y-11476024D02*
X9521238Y-11476024D01*
X9521238Y-11476024D02*
X9540286Y-11485548D01*
X9540286Y-11485548D02*
X9549810Y-11495072D01*
X9549810Y-11495072D02*
X9559333Y-11514119D01*
X9559333Y-11514119D02*
X9559333Y-11523643D01*
X9559333Y-11523643D02*
X9549810Y-11542691D01*
X9549810Y-11542691D02*
X9540286Y-11552214D01*
X9540286Y-11552214D02*
X9521238Y-11561738D01*
X9521238Y-11561738D02*
X9483143Y-11561738D01*
X9483143Y-11561738D02*
X9464095Y-11571262D01*
X9464095Y-11571262D02*
X9454571Y-11580786D01*
X9454571Y-11580786D02*
X9445048Y-11599833D01*
X9445048Y-11599833D02*
X9445048Y-11637929D01*
X9445048Y-11637929D02*
X9454571Y-11656976D01*
X9454571Y-11656976D02*
X9464095Y-11666500D01*
X9464095Y-11666500D02*
X9483143Y-11676024D01*
X9483143Y-11676024D02*
X9521238Y-11676024D01*
X9521238Y-11676024D02*
X9540286Y-11666500D01*
X9540286Y-11666500D02*
X9549810Y-11656976D01*
X9549810Y-11656976D02*
X9559333Y-11637929D01*
X9559333Y-11637929D02*
X9559333Y-11599833D01*
X9559333Y-11599833D02*
X9549810Y-11580786D01*
X9549810Y-11580786D02*
X9540286Y-11571262D01*
X9540286Y-11571262D02*
X9521238Y-11561738D01*
X9730762Y-11476024D02*
X9692667Y-11476024D01*
X9692667Y-11476024D02*
X9673619Y-11485548D01*
X9673619Y-11485548D02*
X9664095Y-11495072D01*
X9664095Y-11495072D02*
X9645048Y-11523643D01*
X9645048Y-11523643D02*
X9635524Y-11561738D01*
X9635524Y-11561738D02*
X9635524Y-11637929D01*
X9635524Y-11637929D02*
X9645048Y-11656976D01*
X9645048Y-11656976D02*
X9654571Y-11666500D01*
X9654571Y-11666500D02*
X9673619Y-11676024D01*
X9673619Y-11676024D02*
X9711714Y-11676024D01*
X9711714Y-11676024D02*
X9730762Y-11666500D01*
X9730762Y-11666500D02*
X9740286Y-11656976D01*
X9740286Y-11656976D02*
X9749810Y-11637929D01*
X9749810Y-11637929D02*
X9749810Y-11590310D01*
X9749810Y-11590310D02*
X9740286Y-11571262D01*
X9740286Y-11571262D02*
X9730762Y-11561738D01*
X9730762Y-11561738D02*
X9711714Y-11552214D01*
X9711714Y-11552214D02*
X9673619Y-11552214D01*
X9673619Y-11552214D02*
X9654571Y-11561738D01*
X9654571Y-11561738D02*
X9645048Y-11571262D01*
X9645048Y-11571262D02*
X9635524Y-11590310D01*
X9921238Y-11476024D02*
X9883143Y-11476024D01*
X9883143Y-11476024D02*
X9864095Y-11485548D01*
X9864095Y-11485548D02*
X9854571Y-11495072D01*
X9854571Y-11495072D02*
X9835524Y-11523643D01*
X9835524Y-11523643D02*
X9826000Y-11561738D01*
X9826000Y-11561738D02*
X9826000Y-11637929D01*
X9826000Y-11637929D02*
X9835524Y-11656976D01*
X9835524Y-11656976D02*
X9845048Y-11666500D01*
X9845048Y-11666500D02*
X9864095Y-11676024D01*
X9864095Y-11676024D02*
X9902191Y-11676024D01*
X9902191Y-11676024D02*
X9921238Y-11666500D01*
X9921238Y-11666500D02*
X9930762Y-11656976D01*
X9930762Y-11656976D02*
X9940286Y-11637929D01*
X9940286Y-11637929D02*
X9940286Y-11590310D01*
X9940286Y-11590310D02*
X9930762Y-11571262D01*
X9930762Y-11571262D02*
X9921238Y-11561738D01*
X9921238Y-11561738D02*
X9902191Y-11552214D01*
X9902191Y-11552214D02*
X9864095Y-11552214D01*
X9864095Y-11552214D02*
X9845048Y-11561738D01*
X9845048Y-11561738D02*
X9835524Y-11571262D01*
X9835524Y-11571262D02*
X9826000Y-11590310D01*
X10016476Y-11476024D02*
X10016476Y-11514119D01*
X10092667Y-11476024D02*
X10092667Y-11514119D01*
X10387905Y-11752214D02*
X10378381Y-11742691D01*
X10378381Y-11742691D02*
X10359333Y-11714119D01*
X10359333Y-11714119D02*
X10349810Y-11695072D01*
X10349810Y-11695072D02*
X10340286Y-11666500D01*
X10340286Y-11666500D02*
X10330762Y-11618881D01*
X10330762Y-11618881D02*
X10330762Y-11580786D01*
X10330762Y-11580786D02*
X10340286Y-11533167D01*
X10340286Y-11533167D02*
X10349810Y-11504595D01*
X10349810Y-11504595D02*
X10359333Y-11485548D01*
X10359333Y-11485548D02*
X10378381Y-11456976D01*
X10378381Y-11456976D02*
X10387905Y-11447452D01*
X10454572Y-11495072D02*
X10464095Y-11485548D01*
X10464095Y-11485548D02*
X10483143Y-11476024D01*
X10483143Y-11476024D02*
X10530762Y-11476024D01*
X10530762Y-11476024D02*
X10549810Y-11485548D01*
X10549810Y-11485548D02*
X10559333Y-11495072D01*
X10559333Y-11495072D02*
X10568857Y-11514119D01*
X10568857Y-11514119D02*
X10568857Y-11533167D01*
X10568857Y-11533167D02*
X10559333Y-11561738D01*
X10559333Y-11561738D02*
X10445048Y-11676024D01*
X10445048Y-11676024D02*
X10568857Y-11676024D01*
X10806953Y-11676024D02*
X10806953Y-11476024D01*
X10892667Y-11676024D02*
X10892667Y-11571262D01*
X10892667Y-11571262D02*
X10883143Y-11552214D01*
X10883143Y-11552214D02*
X10864095Y-11542691D01*
X10864095Y-11542691D02*
X10835524Y-11542691D01*
X10835524Y-11542691D02*
X10816476Y-11552214D01*
X10816476Y-11552214D02*
X10806953Y-11561738D01*
X11016476Y-11676024D02*
X10997429Y-11666500D01*
X10997429Y-11666500D02*
X10987905Y-11656976D01*
X10987905Y-11656976D02*
X10978381Y-11637929D01*
X10978381Y-11637929D02*
X10978381Y-11580786D01*
X10978381Y-11580786D02*
X10987905Y-11561738D01*
X10987905Y-11561738D02*
X10997429Y-11552214D01*
X10997429Y-11552214D02*
X11016476Y-11542691D01*
X11016476Y-11542691D02*
X11045048Y-11542691D01*
X11045048Y-11542691D02*
X11064095Y-11552214D01*
X11064095Y-11552214D02*
X11073619Y-11561738D01*
X11073619Y-11561738D02*
X11083143Y-11580786D01*
X11083143Y-11580786D02*
X11083143Y-11637929D01*
X11083143Y-11637929D02*
X11073619Y-11656976D01*
X11073619Y-11656976D02*
X11064095Y-11666500D01*
X11064095Y-11666500D02*
X11045048Y-11676024D01*
X11045048Y-11676024D02*
X11016476Y-11676024D01*
X11197429Y-11676024D02*
X11178381Y-11666500D01*
X11178381Y-11666500D02*
X11168857Y-11647452D01*
X11168857Y-11647452D02*
X11168857Y-11476024D01*
X11349810Y-11666500D02*
X11330762Y-11676024D01*
X11330762Y-11676024D02*
X11292667Y-11676024D01*
X11292667Y-11676024D02*
X11273619Y-11666500D01*
X11273619Y-11666500D02*
X11264095Y-11647452D01*
X11264095Y-11647452D02*
X11264095Y-11571262D01*
X11264095Y-11571262D02*
X11273619Y-11552214D01*
X11273619Y-11552214D02*
X11292667Y-11542691D01*
X11292667Y-11542691D02*
X11330762Y-11542691D01*
X11330762Y-11542691D02*
X11349810Y-11552214D01*
X11349810Y-11552214D02*
X11359333Y-11571262D01*
X11359333Y-11571262D02*
X11359333Y-11590310D01*
X11359333Y-11590310D02*
X11264095Y-11609357D01*
X11435524Y-11666500D02*
X11454572Y-11676024D01*
X11454572Y-11676024D02*
X11492667Y-11676024D01*
X11492667Y-11676024D02*
X11511714Y-11666500D01*
X11511714Y-11666500D02*
X11521238Y-11647452D01*
X11521238Y-11647452D02*
X11521238Y-11637929D01*
X11521238Y-11637929D02*
X11511714Y-11618881D01*
X11511714Y-11618881D02*
X11492667Y-11609357D01*
X11492667Y-11609357D02*
X11464095Y-11609357D01*
X11464095Y-11609357D02*
X11445048Y-11599833D01*
X11445048Y-11599833D02*
X11435524Y-11580786D01*
X11435524Y-11580786D02*
X11435524Y-11571262D01*
X11435524Y-11571262D02*
X11445048Y-11552214D01*
X11445048Y-11552214D02*
X11464095Y-11542691D01*
X11464095Y-11542691D02*
X11492667Y-11542691D01*
X11492667Y-11542691D02*
X11511714Y-11552214D01*
X11587905Y-11752214D02*
X11597429Y-11742691D01*
X11597429Y-11742691D02*
X11616476Y-11714119D01*
X11616476Y-11714119D02*
X11626000Y-11695072D01*
X11626000Y-11695072D02*
X11635524Y-11666500D01*
X11635524Y-11666500D02*
X11645048Y-11618881D01*
X11645048Y-11618881D02*
X11645048Y-11580786D01*
X11645048Y-11580786D02*
X11635524Y-11533167D01*
X11635524Y-11533167D02*
X11626000Y-11504595D01*
X11626000Y-11504595D02*
X11616476Y-11485548D01*
X11616476Y-11485548D02*
X11597429Y-11456976D01*
X11597429Y-11456976D02*
X11587905Y-11447452D01*
X11949810Y-11752214D02*
X11940286Y-11742691D01*
X11940286Y-11742691D02*
X11921238Y-11714119D01*
X11921238Y-11714119D02*
X11911714Y-11695072D01*
X11911714Y-11695072D02*
X11902191Y-11666500D01*
X11902191Y-11666500D02*
X11892667Y-11618881D01*
X11892667Y-11618881D02*
X11892667Y-11580786D01*
X11892667Y-11580786D02*
X11902191Y-11533167D01*
X11902191Y-11533167D02*
X11911714Y-11504595D01*
X11911714Y-11504595D02*
X11921238Y-11485548D01*
X11921238Y-11485548D02*
X11940286Y-11456976D01*
X11940286Y-11456976D02*
X11949810Y-11447452D01*
X12026000Y-11542691D02*
X12026000Y-11676024D01*
X12026000Y-11561738D02*
X12035524Y-11552214D01*
X12035524Y-11552214D02*
X12054572Y-11542691D01*
X12054572Y-11542691D02*
X12083143Y-11542691D01*
X12083143Y-11542691D02*
X12102191Y-11552214D01*
X12102191Y-11552214D02*
X12111714Y-11571262D01*
X12111714Y-11571262D02*
X12111714Y-11676024D01*
X12235524Y-11676024D02*
X12216476Y-11666500D01*
X12216476Y-11666500D02*
X12206953Y-11656976D01*
X12206953Y-11656976D02*
X12197429Y-11637929D01*
X12197429Y-11637929D02*
X12197429Y-11580786D01*
X12197429Y-11580786D02*
X12206953Y-11561738D01*
X12206953Y-11561738D02*
X12216476Y-11552214D01*
X12216476Y-11552214D02*
X12235524Y-11542691D01*
X12235524Y-11542691D02*
X12264095Y-11542691D01*
X12264095Y-11542691D02*
X12283143Y-11552214D01*
X12283143Y-11552214D02*
X12292667Y-11561738D01*
X12292667Y-11561738D02*
X12302191Y-11580786D01*
X12302191Y-11580786D02*
X12302191Y-11637929D01*
X12302191Y-11637929D02*
X12292667Y-11656976D01*
X12292667Y-11656976D02*
X12283143Y-11666500D01*
X12283143Y-11666500D02*
X12264095Y-11676024D01*
X12264095Y-11676024D02*
X12235524Y-11676024D01*
X12359334Y-11542691D02*
X12435524Y-11542691D01*
X12387905Y-11476024D02*
X12387905Y-11647452D01*
X12387905Y-11647452D02*
X12397429Y-11666500D01*
X12397429Y-11666500D02*
X12416476Y-11676024D01*
X12416476Y-11676024D02*
X12435524Y-11676024D01*
X12654572Y-11542691D02*
X12654572Y-11742691D01*
X12654572Y-11552214D02*
X12673619Y-11542691D01*
X12673619Y-11542691D02*
X12711715Y-11542691D01*
X12711715Y-11542691D02*
X12730762Y-11552214D01*
X12730762Y-11552214D02*
X12740286Y-11561738D01*
X12740286Y-11561738D02*
X12749810Y-11580786D01*
X12749810Y-11580786D02*
X12749810Y-11637929D01*
X12749810Y-11637929D02*
X12740286Y-11656976D01*
X12740286Y-11656976D02*
X12730762Y-11666500D01*
X12730762Y-11666500D02*
X12711715Y-11676024D01*
X12711715Y-11676024D02*
X12673619Y-11676024D01*
X12673619Y-11676024D02*
X12654572Y-11666500D01*
X12864095Y-11676024D02*
X12845048Y-11666500D01*
X12845048Y-11666500D02*
X12835524Y-11647452D01*
X12835524Y-11647452D02*
X12835524Y-11476024D01*
X13026000Y-11676024D02*
X13026000Y-11571262D01*
X13026000Y-11571262D02*
X13016476Y-11552214D01*
X13016476Y-11552214D02*
X12997429Y-11542691D01*
X12997429Y-11542691D02*
X12959334Y-11542691D01*
X12959334Y-11542691D02*
X12940286Y-11552214D01*
X13026000Y-11666500D02*
X13006953Y-11676024D01*
X13006953Y-11676024D02*
X12959334Y-11676024D01*
X12959334Y-11676024D02*
X12940286Y-11666500D01*
X12940286Y-11666500D02*
X12930762Y-11647452D01*
X12930762Y-11647452D02*
X12930762Y-11628405D01*
X12930762Y-11628405D02*
X12940286Y-11609357D01*
X12940286Y-11609357D02*
X12959334Y-11599833D01*
X12959334Y-11599833D02*
X13006953Y-11599833D01*
X13006953Y-11599833D02*
X13026000Y-11590310D01*
X13092667Y-11542691D02*
X13168857Y-11542691D01*
X13121238Y-11476024D02*
X13121238Y-11647452D01*
X13121238Y-11647452D02*
X13130762Y-11666500D01*
X13130762Y-11666500D02*
X13149810Y-11676024D01*
X13149810Y-11676024D02*
X13168857Y-11676024D01*
X13311715Y-11666500D02*
X13292667Y-11676024D01*
X13292667Y-11676024D02*
X13254572Y-11676024D01*
X13254572Y-11676024D02*
X13235524Y-11666500D01*
X13235524Y-11666500D02*
X13226000Y-11647452D01*
X13226000Y-11647452D02*
X13226000Y-11571262D01*
X13226000Y-11571262D02*
X13235524Y-11552214D01*
X13235524Y-11552214D02*
X13254572Y-11542691D01*
X13254572Y-11542691D02*
X13292667Y-11542691D01*
X13292667Y-11542691D02*
X13311715Y-11552214D01*
X13311715Y-11552214D02*
X13321238Y-11571262D01*
X13321238Y-11571262D02*
X13321238Y-11590310D01*
X13321238Y-11590310D02*
X13226000Y-11609357D01*
X13492667Y-11676024D02*
X13492667Y-11476024D01*
X13492667Y-11666500D02*
X13473619Y-11676024D01*
X13473619Y-11676024D02*
X13435524Y-11676024D01*
X13435524Y-11676024D02*
X13416476Y-11666500D01*
X13416476Y-11666500D02*
X13406953Y-11656976D01*
X13406953Y-11656976D02*
X13397429Y-11637929D01*
X13397429Y-11637929D02*
X13397429Y-11580786D01*
X13397429Y-11580786D02*
X13406953Y-11561738D01*
X13406953Y-11561738D02*
X13416476Y-11552214D01*
X13416476Y-11552214D02*
X13435524Y-11542691D01*
X13435524Y-11542691D02*
X13473619Y-11542691D01*
X13473619Y-11542691D02*
X13492667Y-11552214D01*
X13568857Y-11752214D02*
X13578381Y-11742691D01*
X13578381Y-11742691D02*
X13597429Y-11714119D01*
X13597429Y-11714119D02*
X13606953Y-11695072D01*
X13606953Y-11695072D02*
X13616476Y-11666500D01*
X13616476Y-11666500D02*
X13626000Y-11618881D01*
X13626000Y-11618881D02*
X13626000Y-11580786D01*
X13626000Y-11580786D02*
X13616476Y-11533167D01*
X13616476Y-11533167D02*
X13606953Y-11504595D01*
X13606953Y-11504595D02*
X13597429Y-11485548D01*
X13597429Y-11485548D02*
X13578381Y-11456976D01*
X13578381Y-11456976D02*
X13568857Y-11447452D01*
M02*
